<svg xmlns="http://www.w3.org/2000/svg" viewBox="0 0 260 64.55"><defs><style>.cls-1{fill:#5d687b;}.cls-2{fill:#c5ccca;}</style></defs><title>BJS_Logo</title><g id="Layer_2" data-name="Layer 2"><g id="Layer_1-2" data-name="Layer 1"><path class="cls-1" d="M7.24,54.67l.06,2.18H7.16l-.08-.4a2.57,2.57,0,0,0-2.5-2.1c-1.32,0-2.11.58-2.11,1.68,0,2.41,5.24,2.47,5.24,5.55,0,1.75-1.41,2.71-3.31,2.71a7.5,7.5,0,0,1-3-.66l-.12-2.16h.14l.12.38a3.05,3.05,0,0,0,2.88,2.21c1.35,0,2.24-.61,2.24-1.88,0-2.77-5.24-2.7-5.24-5.55,0-1.81,1.5-2.51,3.16-2.51A6.28,6.28,0,0,1,7.24,54.67Z"/><path class="cls-1" d="M17.45,57.06c0,1.62-1,2.82-3.49,2.82H11.74v4.06l.92.08v.15H9.58V64l.92-.08V54.47l-.92-.08v-.15H14C16.43,54.24,17.45,55.44,17.45,57.06Zm-1.36,0c0-1.79-.75-2.59-2.13-2.59H11.74v5.18H14C15.34,59.65,16.09,58.85,16.09,57.06Z"/><path class="cls-1" d="M21.25,54.47v9.47l.92.08v.15H19.09V64l.92-.08V54.47l-.92-.08v-.15h3.08v.15Z"/><path class="cls-1" d="M33.29,62.62v.29a1.32,1.32,0,0,1-1.49,1.38,1.39,1.39,0,0,1-1.49-1.52V61.26c0-1-.49-1.69-1.88-1.69H26.31v4.37l.92.08v.15H24.15V64l.92-.08V54.47l-.92-.08v-.15h4.47c2.28,0,3.26,1.13,3.26,2.67a2.56,2.56,0,0,1-2.83,2.54v0c1.73,0,2.5.83,2.5,2.14v1.23c0,.66.26,1,.75,1s.75-.34.81-.93l0-.29Zm-4.72-3.28c1,0,1.95-.7,1.95-2.44s-.75-2.44-1.9-2.44H26.31v4.87Z"/><path class="cls-1" d="M37,54.47v9.47l.92.08v.15H34.81V64l.92-.08V54.47l-.92-.08v-.15h3.08v.15Z"/><path class="cls-1" d="M48.22,56.81H48l0-.29a2.11,2.11,0,0,0-2.16-2.05H44.46v9.47l.92.08v.15H42.3V64l.92-.08V54.47H41.83a2.13,2.13,0,0,0-2.16,2.05l0,.29h-.17l.09-2.57h8.56Z"/><path class="cls-1" d="M58.85,54.39a1.09,1.09,0,0,0-1.07,1.1v5.18c0,2.62-1.67,3.61-3.4,3.61-2.56,0-3.91-1.33-3.91-3.71V54.47l-.9-.08v-.15h3.08v.15l-.92.08v6.65c0,2.05,1.13,2.94,2.65,2.94s3.14-.78,3.14-3.39V55.5a1.09,1.09,0,0,0-1.07-1.1v-.15h2.41Z"/><path class="cls-1" d="M69.16,64v.15H66V64l.86-.08L65.72,61H61.08l-.41,1.09a2.44,2.44,0,0,0-.15.83c0,.66.51,1.07,1.3,1.07v.15H58.74V64l.93-.08,3.75-9.7h1l3.69,9.7ZM65.63,60.8l-2.21-5.73h0L61.17,60.8Z"/><path class="cls-1" d="M77.75,61.67l-.09,2.5H70.5V64l.92-.08V54.47l-.92-.08v-.15h3.08v.15l-.92.08v9.47h2.62a2.13,2.13,0,0,0,2.25-1.85l0-.41Z"/><path class="cls-1" d="M90.36,62.74,91.23,64,92,64v.15H90l-.51-.7a4.73,4.73,0,0,1-3,.83c-1.87,0-3.22-1-3.22-2.7,0-1.84,1.3-2.73,2.6-3.23a4.08,4.08,0,0,1-.78-2.25,1.94,1.94,0,0,1,2.13-2c1.44,0,2.11.75,2.11,1.67,0,1.3-1.73,2.16-2.33,2.39a.82.82,0,0,1,.11.14l3,4.26a3.51,3.51,0,0,0,1.12-2.39c0-.72-.32-1.24-1.39-1.24v-.15h2.77v.15L92,59A5.21,5.21,0,0,1,90.36,62.74Zm-1,.55-3.12-4.47c-.08-.09-.14-.2-.21-.31a2.9,2.9,0,0,0-1.52,2.6,2.52,2.52,0,0,0,2.73,2.71A3.87,3.87,0,0,0,89.39,63.29Zm-3.2-7.46A4,4,0,0,0,87,58c.41-.25,1.64-1,1.64-2.25a1.3,1.3,0,0,0-1.23-1.44C86.73,54.35,86.19,54.81,86.19,55.83Z"/><path class="cls-1" d="M106,61.67l-.09,2.5H98.78V64l.92-.08V54.47l-.92-.08v-.15h3.08v.15l-.92.08v9.47h2.62a2.13,2.13,0,0,0,2.25-1.85l0-.41Z"/><path class="cls-1" d="M109.75,54.47v9.47l.92.08v.15h-3.08V64l.92-.08V54.47l-.92-.08v-.15h3.08v.15Z"/><path class="cls-1" d="M120.08,56.81h-.17l0-.29a2.17,2.17,0,0,0-2.27-2.05h-2.8v4.69h2a1.33,1.33,0,0,0,1.33-1.33l0-.34h.17v3.57h-.17l0-.32a1.34,1.34,0,0,0-1.33-1.35h-2v4.55l1,.08v.15h-3.17V64l.92-.08V54.47l-.92-.08v-.15H120Z"/><path class="cls-1" d="M129.54,61.59l-.09,2.57h-7.74V64l.92-.08V54.47l-.92-.08v-.15h7.37l.09,2.57H129l0-.29a2.21,2.21,0,0,0-2.34-2.05h-2.76V59.1h2a1.44,1.44,0,0,0,1.41-1.38l0-.34h.18V61h-.18l0-.34a1.44,1.44,0,0,0-1.41-1.38h-2v4.61H127a2.23,2.23,0,0,0,2.34-2.05l0-.29Z"/><path class="cls-1" d="M137.33,54.67l.06,2.18h-.14l-.08-.4a2.57,2.57,0,0,0-2.5-2.1c-1.32,0-2.11.58-2.11,1.68,0,2.41,5.24,2.47,5.24,5.55,0,1.75-1.41,2.71-3.31,2.71a7.5,7.5,0,0,1-3-.66l-.12-2.16h.14l.12.38a3.05,3.05,0,0,0,2.88,2.21c1.35,0,2.24-.61,2.24-1.88,0-2.77-5.24-2.7-5.24-5.55,0-1.81,1.5-2.51,3.16-2.51A6.28,6.28,0,0,1,137.33,54.67Z"/><path class="cls-1" d="M148,56.81h-.17l0-.29a2.11,2.11,0,0,0-2.16-2.05h-1.39v9.47l.92.08v.15H142.1V64l.92-.08V54.47h-1.39a2.13,2.13,0,0,0-2.16,2.05l0,.29h-.17l.09-2.57h8.56Z"/><path class="cls-1" d="M154.62,60v3.94l.92.08v.15h-3.08V64l.92-.08V60l-3.19-5.48-1-.08v-.15h3.2v.15l-.84.08,2.94,5.15h.09v0l1.81-3.26a2.42,2.42,0,0,0,.38-1.24c0-.43-.44-.74-1.13-.74v-.15h3.11v.15l-1,.08Z"/><path class="cls-1" d="M167.23,61.67l-.09,2.5H160V64l.92-.08V54.47l-.92-.08v-.15h3.08v.15l-.92.08v9.47h2.62A2.13,2.13,0,0,0,167,62.08l0-.41Z"/><path class="cls-1" d="M176.31,61.59l-.09,2.57h-7.74V64l.92-.08V54.47l-.92-.08v-.15h7.37l.09,2.57h-.17l0-.29a2.21,2.21,0,0,0-2.34-2.05h-2.76V59.1h2A1.44,1.44,0,0,0,174,57.72l0-.34h.18V61H174l0-.34a1.44,1.44,0,0,0-1.41-1.38h-2v4.61h3.13a2.23,2.23,0,0,0,2.34-2.05l0-.29Z"/><path class="cls-1" d="M190.73,61.53l-.11,2.08a5.84,5.84,0,0,1-2.91.67,4.74,4.74,0,0,1-5.1-5.09,4.74,4.74,0,0,1,5.1-5.09,7,7,0,0,1,3,.6l0,2.21h-.15l-.09-.34a3,3,0,0,0-2.77-2.24c-2.28,0-3.74,1.52-3.74,4.86s1.45,4.86,3.74,4.86a3,3,0,0,0,2.79-2.25l.08-.28Z"/><path class="cls-1" d="M202.31,59.2c0,2.9-1.81,5.09-4.86,5.09s-4.84-2.19-4.84-5.09,1.82-5.09,4.84-5.09S202.31,56.31,202.31,59.2Zm-1.36,0c0-3.34-1.41-4.86-3.49-4.86S194,55.86,194,59.2s1.41,4.86,3.48,4.86S200.95,62.54,200.95,59.2Z"/><path class="cls-1" d="M213.38,64v.15h-3.17V64l.86-.08L210,61h-4.64l-.41,1.09a2.45,2.45,0,0,0-.15.83c0,.66.5,1.07,1.3,1.07v.15H203V64l.94-.08,3.75-9.7h1l3.69,9.7Zm-3.52-3.22-2.21-5.73h0L205.4,60.8Z"/><path class="cls-1" d="M222.12,61.53,222,63.62a5.84,5.84,0,0,1-2.91.67A4.74,4.74,0,0,1,214,59.2a4.74,4.74,0,0,1,5.1-5.09,7,7,0,0,1,3,.6l0,2.21H222l-.09-.34a3,3,0,0,0-2.77-2.24c-2.28,0-3.74,1.52-3.74,4.86s1.45,4.86,3.74,4.86a3,3,0,0,0,2.79-2.25l.08-.28Z"/><path class="cls-1" d="M232.9,54.47v9.47l.92.08v.15h-3.08V64l.92-.08V59.3h-5.47v4.64l.92.08v.15H224V64l.92-.08V54.47l-.92-.08v-.15h3.08v.15l-.92.08v4.6h5.47v-4.6l-.92-.08v-.15h3.08v.15Z"/><path class="cls-1" d="M237.94,54.47v9.47l.92.08v.15h-3.08V64l.92-.08V54.47l-.92-.08v-.15h3.08v.15Z"/><path class="cls-1" d="M249.66,54.24v.15a1.09,1.09,0,0,0-1.07,1.1v8.79h-.4l-6.45-9.08h0v7.71A1.09,1.09,0,0,0,242.8,64v.15h-2.41V64a1.11,1.11,0,0,0,1.07-1.1V54.85l-.29-.41-.63,0v-.15h2l5.76,8h0V55.5a1.09,1.09,0,0,0-1.07-1.1v-.15Z"/><path class="cls-1" d="M260,60.57l-.87.08v3.91H259l-.09-.9a5.74,5.74,0,0,1-2.77.64A4.74,4.74,0,0,1,251,59.2a4.74,4.74,0,0,1,5.1-5.09,7,7,0,0,1,3,.6l0,2.21H259a2.86,2.86,0,0,0-2.86-2.57c-2.28,0-3.74,1.52-3.74,4.86s1.45,4.86,3.74,4.86a3.1,3.1,0,0,0,1.78-.54V60.64l-.89-.08v-.15h3Z"/><rect class="cls-2" x="130.26" y="-16.26" width="1" height="110.17" transform="translate(91.64 169.5) rotate(-89.87)"/><path class="cls-1" d="M.12,20.33l.42-.39a.33.33,0,0,1,.55,0,5.27,5.27,0,0,0,4,2c2.73,0,4.69-1.9,4.69-5.72V.9a.41.41,0,0,1,.45-.42h.64a.43.43,0,0,1,.42.42V16.19c0,4.5-2.41,7.1-6.23,7.1A6.18,6.18,0,0,1,.09,20.88.4.4,0,0,1,.12,20.33Z"/><path class="cls-1" d="M30,.16a11.56,11.56,0,1,1-11.56,11.6A11.55,11.55,0,0,1,30,.16Zm0,21.71A10.15,10.15,0,1,0,19.88,11.76,10.13,10.13,0,0,0,30,21.87Z"/><path class="cls-1" d="M48.69,20l.29-.39c.23-.26.45-.35.71-.13a9.34,9.34,0,0,0,5.94,2.47c2.92,0,5.4-2,5.4-4.3,0-2.86-2.34-4.14-6.23-5.46-3.73-1.32-6.2-2.63-6.2-6.33,0-2.41,1.93-5.69,6.94-5.69A10.55,10.55,0,0,1,61.05,1.8a.46.46,0,0,1,.13.67,2.92,2.92,0,0,0-.26.42.46.46,0,0,1-.71.16,9.42,9.42,0,0,0-4.72-1.51c-4,0-5.43,2.44-5.43,4.27,0,2.73,2.09,3.92,5.33,5,4.4,1.51,7.2,3.05,7.2,6.78,0,3.21-3.31,5.72-7,5.72a10.46,10.46,0,0,1-6.81-2.63C48.59,20.49,48.43,20.33,48.69,20Z"/><path class="cls-1" d="M70.69.9A.42.42,0,0,1,71.1.48h.67A.4.4,0,0,1,72.2.9v9.86H86.62V.9A.43.43,0,0,1,87,.48h.67a.4.4,0,0,1,.42.42V22.55a.4.4,0,0,1-.42.42H87a.43.43,0,0,1-.42-.42V12.11H72.2V22.55a.4.4,0,0,1-.42.42H71.1a.42.42,0,0,1-.42-.42Z"/><path class="cls-1" d="M97.89.9a.43.43,0,0,1,.42-.42H99A.43.43,0,0,1,99.4.9V14.61c0,4.14,2.6,7.2,6.87,7.2s6.94-3,6.94-7.16V.9c0-.26.13-.42.45-.42h.64a.43.43,0,0,1,.42.42V14.78c0,4.91-3.34,8.51-8.45,8.51s-8.38-3.6-8.38-8.51Z"/><path class="cls-1" d="M121.08,22.58,131,.22a.45.45,0,0,1,.39-.22h.1a.41.41,0,0,1,.42.22l9.8,22.36c.06.19.06.39-.29.39h-.83a.52.52,0,0,1-.45-.29l-2.6-5.91H125.22l-2.57,5.91a.52.52,0,0,1-.45.29h-.9C121.08,23,121,22.84,121.08,22.58Zm15.87-7.07L131.45,2.57h-.06L125.8,15.51Z"/><path class="cls-1" d="M157.3,20l.29-.39c.23-.26.45-.35.71-.13a9.34,9.34,0,0,0,5.94,2.47c2.92,0,5.4-2,5.4-4.3,0-2.86-2.34-4.14-6.23-5.46-3.73-1.32-6.2-2.63-6.2-6.33,0-2.41,1.93-5.69,6.94-5.69a10.55,10.55,0,0,1,5.53,1.64.46.46,0,0,1,.13.67,2.91,2.91,0,0,0-.26.42.46.46,0,0,1-.71.16,9.41,9.41,0,0,0-4.72-1.51c-4,0-5.43,2.44-5.43,4.27,0,2.73,2.09,3.92,5.33,5,4.4,1.51,7.2,3.05,7.2,6.78,0,3.21-3.31,5.72-7,5.72a10.46,10.46,0,0,1-6.81-2.63C157.21,20.49,157,20.33,157.3,20Z"/><path class="cls-1" d="M182.07.39a.31.31,0,0,1,.29-.23h.35a.31.31,0,0,1,.32.23l6.62,19.72h.06L196.36.39a.31.31,0,0,1,.32-.23H197a.31.31,0,0,1,.29.23l4.56,22.16c.06.32-.06.42-.35.42h-.77a.41.41,0,0,1-.39-.35L196.75,3.79h-.06L190.19,23a.43.43,0,0,1-.45.26h-.13a.38.38,0,0,1-.42-.26L182.71,3.79h-.06L179,22.61a.41.41,0,0,1-.39.35h-.77c-.29,0-.42-.1-.35-.42Z"/><path class="cls-1" d="M210.1.9a.43.43,0,0,1,.42-.42h.71a.43.43,0,0,1,.42.42V22.55a.43.43,0,0,1-.45.42h-.67a.43.43,0,0,1-.42-.42Z"/><path class="cls-1" d="M225.07,1.86h-6.14c-.32,0-.42-.19-.42-.48V.9a.4.4,0,0,1,.42-.42h13.81a.4.4,0,0,1,.42.42v.55a.4.4,0,0,1-.42.42h-6.17V22.55c0,.23-.19.42-.51.42h-.58a.43.43,0,0,1-.42-.42Z"/><path class="cls-1" d="M240,.9a.43.43,0,0,1,.42-.42h.67a.4.4,0,0,1,.42.42v9.86H256V.9a.43.43,0,0,1,.42-.42h.68a.4.4,0,0,1,.42.42V22.55a.4.4,0,0,1-.42.42h-.68a.43.43,0,0,1-.42-.42V12.11H241.55V22.55a.4.4,0,0,1-.42.42h-.67a.43.43,0,0,1-.42-.42Z"/></g></g></svg>