<?xml version="1.0" encoding="UTF-8"?>
<svg width="31px" height="31px" viewBox="0 0 31 31" version="1.1" xmlns="http://www.w3.org/2000/svg" xmlns:xlink="http://www.w3.org/1999/xlink">
    <title>icon-instagram</title>
    <g id="Page-1" stroke="none" stroke-width="1" fill="none" fill-rule="evenodd">
        <g id="Placeholder-Page" transform="translate(-1331.000000, -154.000000)" fill="#4C3F42">
            <path d="M1354.77483,163.080711 C1353.74214,163.080711 1352.92188,162.251369 1352.92188,161.227234 C1352.92188,160.203099 1353.75099,159.373756 1354.77483,159.373756 C1355.79867,159.373756 1356.62778,160.203099 1356.62778,161.227234 C1356.62778,162.257271 1355.79867,163.080711 1354.77483,163.080711 M1351.6679,169.5 C1351.6679,166.64895 1349.35171,164.332104 1346.50443,164.332104 C1343.65419,164.332104 1341.33801,166.64895 1341.33801,169.5 C1341.33801,172.35105 1343.66009,174.667896 1346.50443,174.667896 C1349.34581,174.667896 1351.6679,172.35105 1351.6679,169.5 M1354.45027,169.5 C1354.45027,173.900533 1350.9037,177.448113 1346.50443,177.448113 C1342.10515,177.448113 1338.55858,173.900533 1338.55858,169.5 C1338.55858,165.099467 1342.10515,161.551887 1346.50443,161.551887 C1350.9037,161.551887 1354.45027,165.099467 1354.45027,169.5 M1359.20656,169.5 C1359.20656,167.245133 1359.39245,162.40189 1358.584,160.362474 C1358.03814,158.998929 1356.99365,157.954134 1355.63934,157.41698 C1353.60641,156.6142 1348.75865,156.794235 1346.50443,156.794235 C1344.2502,156.794235 1339.40834,156.605346 1337.36951,157.41698 C1336.00635,157.962989 1334.96186,159.007783 1334.42191,160.362474 C1333.61935,162.395987 1333.79934,167.245133 1333.79934,169.5 C1333.79934,171.754867 1333.61345,176.59811 1334.42191,178.637526 C1334.96776,180.001071 1336.01225,181.042914 1337.36951,181.585971 C1339.40244,182.388751 1344.2502,182.205765 1346.50443,182.205765 C1348.75865,182.205765 1353.60051,182.391703 1355.63934,181.585971 C1356.99955,181.037011 1358.04404,179.992217 1358.584,178.637526 C1359.39245,176.604013 1359.20656,171.754867 1359.20656,169.5 M1361.89157,175.889775 C1361.76469,178.374851 1361.19819,180.573642 1359.38655,182.388751 C1357.57491,184.206812 1355.37674,184.77348 1352.89238,184.891536 C1350.33425,185.036155 1342.66575,185.036155 1340.10762,184.891536 C1337.62621,184.767577 1335.431,184.197958 1333.61345,182.388751 C1331.79296,180.573642 1331.22941,178.374851 1331.10843,175.889775 C1330.96386,173.330914 1330.96386,165.660232 1331.10843,163.101371 C1331.23236,160.619246 1331.79296,158.417504 1333.61345,156.605346 C1335.431,154.793188 1337.62916,154.22652 1340.10762,154.108464 C1342.66575,153.963845 1350.33425,153.963845 1352.89238,154.108464 C1355.37674,154.232423 1357.57491,154.799091 1359.38655,156.6142 C1361.20704,158.423406 1361.77354,160.625149 1361.89157,163.107274 C1362.03614,165.666135 1362.03614,173.330914 1361.89157,175.889775" id="icon-instagram"></path>
        </g>
    </g>
</svg>