<?xml version="1.0" encoding="UTF-8"?>
<svg width="46px" height="29px" viewBox="0 0 46 29" version="1.1" xmlns="http://www.w3.org/2000/svg" xmlns:xlink="http://www.w3.org/1999/xlink">
    <title>icon-email_sign_up</title>
    <g id="Page-1" stroke="none" stroke-width="1" fill="none" fill-rule="evenodd">
        <g id="Placeholder-Page" transform="translate(-1327.000000, -272.000000)" fill="#4C3F42">
            <g id="icon-email_sign_up" transform="translate(1327.000000, 272.000000)">
                <path d="M9.1385,9.0295 L0.3360005,20.6645 C0.2363905,20.398875 0.1817055,20.12545 0.1817055,19.8266 L0.1817055,2.5511 C0.1817055,2.46321 0.1817055,2.385085 0.191471,2.308915 L9.1385,9.0295 Z" id="Fill-1"></path>
                <path d="M36.535,11.3105 C41.4901,11.3105 45.5,15.19135 45.5,19.9805 C45.5,24.76565 41.49025,28.6445 36.535,28.6445 C31.5858,28.6445 27.574,24.76365 27.574,19.9805 C27.574,15.1895 31.5857,11.3105 36.535,11.3105 Z M41.8105,21.2305 L41.8105,18.7305 L37.94135,18.7305 L37.939395,15.00005 L35.439395,15.00005 L35.439395,18.7305 L31.558545,18.7305 L31.558545,21.2305 L35.439395,21.2305 L35.439395,25.25005 L37.939395,25.25005 L37.939395,21.2305 L41.8105,21.2305 Z" id="Fill-2"></path>
                <path d="M38.006,2.551 L38.006,8.8555 C37.621235,8.820345 37.2267,8.80081 36.81655,8.80081 C34.4357,8.80081 32.2111,9.52541 30.38105,10.78126 L29.1174,9.09571 L38.0059,2.51571 L38.0059,2.550865 L38.006,2.551 Z" id="Fill-3"></path>
                <path d="M36.92605,0.5545 L19.1,13.664 L1.4259985,0.455 C1.7560785,0.269455 2.1408485,0.169845 2.56075,0.169845 L35.62525,0.169845 C36.109625,0.169845 36.55105,0.314375 36.92605,0.55461 L36.92605,0.5545 Z" id="Fill-4"></path>
                <path d="M27.34,10.414 L28.67595,12.1796 C26.61735,14.26555 25.3361,17.1249 25.3361,20.2791 C25.3361,20.93925 25.39079,21.5799 25.50016,22.2049 L2.56066,22.2049 C2.3653495,22.2049 2.1758945,22.18537 1.9903595,22.140445 L10.90036,10.349445 L19.09936,16.509445 L27.34,10.414 Z" id="Fill-5"></path>
            </g>
        </g>
    </g>
</svg>