<svg xmlns="http://www.w3.org/2000/svg" viewBox="0 0 212.23 19.2"><defs><style>.cls-1{fill:#5b697d;}</style></defs><title>Asset 1</title><g id="Layer_2" data-name="Layer 2"><g id="Layer_1-2" data-name="Layer 1"><path class="cls-1" d="M.1,16.76l.35-.32a.27.27,0,0,1,.45,0,4.34,4.34,0,0,0,3.25,1.64C6.4,18.08,8,16.52,8,13.37V.74A.34.34,0,0,1,8.39.4h.53a.35.35,0,0,1,.34.34v12.6c0,3.71-2,5.86-5.13,5.86a5.08,5.08,0,0,1-4-2A.33.33,0,0,1,.1,16.76Z"/><path class="cls-1" d="M24.75.13a9.54,9.54,0,1,1-9.53,9.56A9.53,9.53,0,0,1,24.75.13Zm0,17.9a8.37,8.37,0,1,0-8.37-8.34A8.35,8.35,0,0,0,24.75,18Z"/><path class="cls-1" d="M40.13,16.47l.24-.32c.18-.21.37-.29.58-.11a7.66,7.66,0,0,0,4.9,2c2.41,0,4.45-1.61,4.45-3.54,0-2.36-1.94-3.42-5.14-4.51s-5.11-2.17-5.11-5.21c0-2,1.59-4.69,5.72-4.69a8.68,8.68,0,0,1,4.55,1.35.39.39,0,0,1,.11.56,2.09,2.09,0,0,0-.21.34.4.4,0,0,1-.59.14,7.65,7.65,0,0,0-3.89-1.25c-3.25,0-4.47,2-4.47,3.52C41.27,7,43,8,45.66,8.9c3.63,1.24,5.93,2.51,5.93,5.58,0,2.65-2.72,4.72-5.77,4.72A8.58,8.58,0,0,1,40.21,17C40.05,16.89,39.92,16.76,40.13,16.47Z"/><path class="cls-1" d="M58.26.74A.35.35,0,0,1,58.61.4h.55a.33.33,0,0,1,.35.34V8.87H71.4V.74A.34.34,0,0,1,71.74.4h.56a.33.33,0,0,1,.34.34V18.59a.33.33,0,0,1-.34.34h-.56a.34.34,0,0,1-.34-.34V10H59.51v8.61a.33.33,0,0,1-.35.34h-.55a.35.35,0,0,1-.35-.34Z"/><path class="cls-1" d="M80.69.74A.34.34,0,0,1,81,.4h.56a.35.35,0,0,1,.34.34V12.05c0,3.41,2.14,5.93,5.67,5.93s5.71-2.49,5.71-5.91V.74c0-.21.11-.34.38-.34h.52a.35.35,0,0,1,.35.34V12.18a6.94,6.94,0,1,1-13.87,0Z"/><path class="cls-1" d="M99.8,18.61,108,.19a.38.38,0,0,1,.32-.19h.08a.33.33,0,0,1,.34.19l8.08,18.42c0,.16,0,.32-.24.32h-.69a.44.44,0,0,1-.37-.24l-2.14-4.87H103.21l-2.11,4.87a.44.44,0,0,1-.38.24H100C99.8,18.93,99.72,18.82,99.8,18.61Zm13.08-5.82L108.35,2.12h0l-4.61,10.67Z"/><path class="cls-1" d="M129.66,16.47l.24-.32c.18-.21.37-.29.58-.11a7.69,7.69,0,0,0,4.9,2c2.41,0,4.45-1.61,4.45-3.54,0-2.36-1.94-3.42-5.14-4.51s-5.11-2.17-5.11-5.21c0-2,1.59-4.69,5.72-4.69a8.68,8.68,0,0,1,4.55,1.35A.39.39,0,0,1,140,2a2.09,2.09,0,0,0-.21.34.4.4,0,0,1-.59.14,7.61,7.61,0,0,0-3.89-1.25c-3.25,0-4.47,2-4.47,3.52,0,2.25,1.72,3.23,4.39,4.11,3.63,1.24,5.93,2.51,5.93,5.58,0,2.65-2.72,4.72-5.77,4.72A8.58,8.58,0,0,1,129.74,17C129.58,16.89,129.45,16.76,129.66,16.47Z"/><path class="cls-1" d="M150.07.32a.26.26,0,0,1,.24-.19h.29a.28.28,0,0,1,.27.19l5.45,16.25h.05L161.85.32a.28.28,0,0,1,.27-.19h.29a.26.26,0,0,1,.24.19l3.76,18.27c.05.26-.06.34-.29.34h-.64a.34.34,0,0,1-.32-.29l-3-15.52h0L156.77,19a.36.36,0,0,1-.37.22h-.11A.31.31,0,0,1,156,19L150.6,3.12h0l-3,15.52a.34.34,0,0,1-.32.29h-.64c-.24,0-.34-.08-.29-.34Z"/><path class="cls-1" d="M173.18.74a.35.35,0,0,1,.34-.34h.59a.35.35,0,0,1,.34.34V18.59a.35.35,0,0,1-.37.34h-.56a.35.35,0,0,1-.34-.34Z"/><path class="cls-1" d="M185.52,1.54h-5.06c-.27,0-.34-.16-.34-.4V.74a.33.33,0,0,1,.34-.34h11.38a.33.33,0,0,1,.35.34v.45a.34.34,0,0,1-.35.35h-5.08V18.59a.37.37,0,0,1-.42.34h-.48a.35.35,0,0,1-.34-.34Z"/><path class="cls-1" d="M197.85.74A.35.35,0,0,1,198.2.4h.55a.34.34,0,0,1,.35.34V8.87H211V.74a.34.34,0,0,1,.34-.34h.56a.33.33,0,0,1,.34.34V18.59a.33.33,0,0,1-.34.34h-.56a.34.34,0,0,1-.34-.34V10H199.1v8.61a.34.34,0,0,1-.35.34h-.55a.35.35,0,0,1-.35-.34Z"/></g></g></svg>