<?xml version="1.0" encoding="UTF-8"?>
<svg width="107px" height="17px" viewBox="0 0 107 17" version="1.1" xmlns="http://www.w3.org/2000/svg" xmlns:xlink="http://www.w3.org/1999/xlink">
    <title>logo-designgood</title>
    <g id="Page-1" stroke="none" stroke-width="1" fill="none" fill-rule="evenodd">
        <g id="Placeholder-Page" transform="translate(-1297.000000, -1556.000000)" fill="#AF8E6D">
            <g id="Group-33" transform="translate(1090.000000, 1553.000000)">
                <path d="M252.457951,4.60995543 C253.414388,4.60995543 254.053195,5.15783587 254.053195,5.97235761 C254.053195,6.75361848 253.448373,7.3356837 252.658501,7.385575 C252.742903,6.87040109 252.137708,6.60431413 251.583676,6.60431413 C251.044957,6.60431413 250.441442,6.8532163 250.558523,7.6182163 C252.389981,7.6182163 254.20314,8.68145543 254.20314,9.92855326 C254.20314,11.4578141 252.457951,12.5548685 250.054535,12.5548685 C249.416662,12.5548685 248.711565,12.4210859 247.988729,12.2059989 C246.662378,13.1692707 247.669979,13.5347707 249.467079,13.5347707 C249.954261,13.5347707 250.659357,13.5020641 251.213389,13.5020641 C252.909841,13.5020641 255.094034,13.866825 255.094034,16.0611185 C255.094034,18.3391185 252.708731,19.7175967 249.467079,19.7175967 C247.636368,19.7175967 245.620979,19.3356511 245.620979,17.8394663 C245.620979,17.0084989 246.242046,16.6265533 246.88104,16.6265533 C247.484742,16.6265533 248.141288,16.9924228 248.174527,17.7398685 C247.821605,17.8394663 247.603316,18.1887054 247.603316,18.6042815 C247.603316,19.1695315 248.073505,19.5684772 249.634951,19.5684772 C251.735302,19.5684772 253.1961,18.8199228 253.1961,17.707162 C253.1961,16.9255315 252.473637,16.4766946 251.130293,16.4766946 C250.692969,16.4766946 249.987872,16.510325 249.215553,16.510325 C247.535719,16.510325 245.554689,16.2608685 245.554689,14.5649337 C245.554689,13.6678141 246.461455,12.8863685 247.854843,12.1383685 C247.014926,11.8724663 246.174823,11.2081728 246.174823,10.2273467 C246.174823,8.38266196 248.845451,7.56777065 250.441442,7.6182163 C249.887971,6.15547717 250.827789,4.60995543 252.457951,4.60995543 Z M274.448975,3 C276.116671,3 277.068999,3.629 278.160443,3.629 C278.676567,3.629 278.874316,3.31357609 279.093538,3.0393587 L279.411168,8.51927174 L279.27224,8.51927174 C279.034344,6.24090217 277.684465,3.13747826 274.58809,3.13747826 C271.313573,3.13747826 270.856642,7.16407609 270.856642,10.0125 C270.856642,12.86 271.313573,16.8856739 274.58809,16.8856739 C275.044834,16.8856739 275.461991,16.8270978 275.858795,16.7090217 L275.858795,10.5419022 L273.913244,10.5419022 L273.913244,10.4040543 L281.276425,10.4040543 L281.276425,10.5419022 L279.748777,10.5419022 L279.748777,16.9843478 L279.632552,16.8341661 C279.459429,16.6117131 279.273954,16.414663 278.835476,16.414663 C277.644691,16.414663 276.036937,17.0227826 274.448975,17.0227826 C270.182169,17.0227826 266.490122,14.1357391 266.490122,10.0125 C266.490122,5.88722826 270.182169,3 274.448975,3 Z M296.881301,8.04375217 C299.618779,8.04375217 301.751621,9.93869783 301.751621,12.531937 C301.751621,15.124437 299.618779,17.019013 296.881301,17.019013 C294.143636,17.019013 292.010233,15.124437 292.010233,12.531937 C292.010233,9.93869783 294.143636,8.04375217 296.881301,8.04375217 Z M286.283937,8.04375217 C289.022162,8.04375217 291.154631,9.93869783 291.154631,12.531937 C291.154631,15.124437 289.022162,17.019013 286.283937,17.019013 C283.547579,17.019013 281.413803,15.124437 281.413803,12.531937 C281.413803,9.93869783 283.547579,8.04375217 286.283937,8.04375217 Z M311.625981,3.7554837 L311.625981,14.8914076 C311.625981,15.7388207 311.944171,16.6363098 313.137756,15.6558533 L313.204606,15.7388207 C312.430979,16.3872228 311.474729,17.0023641 310.264898,17.0023641 C309.223312,17.0023641 308.602431,16.2048424 308.519522,15.0909728 C308.183406,16.2709946 307.225849,17.0023641 305.931989,17.0023641 C303.531001,17.0023641 302.505473,14.7749946 302.505473,12.7471902 C302.505473,9.68866848 304.840359,8.0437337 307.057978,8.0437337 C307.8964,8.0437337 308.334285,8.39297283 308.552947,8.99129891 L308.519522,4.28802717 L306.838195,4.50403804 L306.822323,4.38725543 L311.625981,3.7554837 Z M213.298254,5.33049674 C217.397446,5.33049674 220.008397,7.17911574 220.049582,11.0215901 C220.253604,11.0327755 220.410826,11.0440931 220.505141,11.0561152 C221.109963,9.14435435 222.90725,7.91462609 225.34241,7.91462609 C228.113126,7.91462609 229.591663,9.26113696 229.121101,11.3227565 C227.055481,11.703963 225.224583,11.670887 223.645958,11.5383978 C223.695255,13.183887 224.284018,15.6102674 226.50145,15.6102674 C227.676549,15.6102674 228.852395,14.6133652 229.373561,13.399713 L229.473462,13.4494196 C228.650912,15.2275826 227.022056,16.8730717 224.602581,16.8730717 C222.201406,16.8730717 220.286478,15.1776913 220.286478,12.5349304 C220.286478,12.0700174 220.353888,11.6213652 220.470969,11.1891587 C220.410077,11.1832956 220.259408,11.1779655 220.050183,11.1731589 L220.050077,11.1141924 C220.050077,14.4554315 217.934227,16.9651489 213.986731,16.9651489 L207,16.9651489 L207,16.8487359 C208.751538,16.8487359 208.811936,15.9807243 208.814018,14.1708556 L208.814093,8.32194239 C208.814093,6.31132283 208.814093,5.44654022 207,5.44654022 L207,5.33049674 L213.298254,5.33049674 Z M296.881301,8.16053478 C295.418292,8.16053478 295.355185,9.79502444 295.352636,12.2805741 L295.352533,12.531937 C295.352533,15.1576978 295.369525,16.9027848 296.881301,16.9027848 C298.343044,16.9027848 298.40646,15.2684682 298.409031,12.7832646 L298.409134,12.531937 C298.409134,9.90580652 298.391768,8.16053478 296.881301,8.16053478 Z M286.283937,8.16053478 C284.772348,8.16053478 284.754982,9.90580652 284.754982,12.531937 C284.754982,15.1576978 284.772348,16.9027848 286.283937,16.9027848 C287.698353,16.9027848 287.804312,15.3756067 287.812097,13.0289196 L287.812097,12.034885 C287.804312,9.68787457 287.698353,8.16053478 286.283937,8.16053478 Z M212.761215,5.44654022 L212.273473,5.44654022 L212.273473,14.9038989 C212.273473,16.4826815 212.324264,16.8487359 213.399088,16.8487359 C215.313829,16.8487359 216.355042,15.3697359 216.355042,11.1478228 L216.355,11.14 L216.314431,11.1418317 C215.723963,11.1678791 215.285259,11.3844246 215.285259,12.0201261 C215.285259,12.5184848 215.704657,12.8843543 216.074758,13.0504739 C216.023594,14.0978217 215.267893,14.57955 214.428537,14.57955 C213.53839,14.57955 212.698847,13.9982239 212.698847,12.8843543 C212.698847,11.3052022 214.377559,10.9230717 215.58739,10.9230717 C215.713151,10.9230717 215.99027,10.9254738 216.352977,10.9301121 L216.355042,11.1478228 C216.355042,7.29214891 215.969069,5.44654022 212.761215,5.44654022 Z M234.453842,7.73413043 C235.193111,7.73413043 235.932566,7.86754348 236.520022,8.04973913 L237.628271,7.75113043 L237.796889,10.6766087 L237.679062,10.6766087 C237.477392,8.66525 235.613069,7.86754348 234.386993,7.86754348 C233.41319,7.86754348 232.758324,8.38253261 232.758324,9.01448913 C232.758324,10.90925 238.619813,10.4101522 238.619813,13.6845 C238.619813,15.479663 236.839332,16.6925761 234.488388,16.6925761 C233.698141,16.6925761 232.707533,16.560087 231.783401,16.3438913 L230.540892,16.6595 L230.356962,13.1196196 L230.474042,13.1196196 C230.860576,15.9285 233.312355,16.560087 234.488388,16.560087 C235.562278,16.560087 236.335718,16.044913 236.335718,15.3961413 C236.335718,13.5849022 230.356962,13.7840978 230.356962,10.5101196 C230.356962,8.4655 232.707533,7.73413043 234.453842,7.73413043 Z M263.507018,7.73413043 C264.867167,7.73413043 265.455183,8.48268478 265.455183,10.1775109 L265.455183,14.3493478 C265.455183,16.1275109 265.606062,16.4604891 266.916728,16.4604891 L266.916728,16.5765326 L261.441585,16.5765326 L261.441585,16.4604891 C262.290736,16.4604891 262.344987,16.0515282 262.348164,14.8576986 L262.348351,10.610087 C262.348351,9.92842391 262.264322,9.03148913 261.289212,9.03148913 C260.886807,9.03148913 260.31541,9.24676087 259.811609,9.67915217 L259.811609,14.6817717 C259.811609,15.72875 259.828042,16.4604891 260.735741,16.4604891 L260.735741,16.5765326 L255.243419,16.5765326 L255.243419,16.4604891 C256.552591,16.4604891 256.704404,16.1275109 256.704404,14.3493478 L256.704404,10.361 C256.704404,9.24676087 256.470429,8.79847826 255.04175,9.13090217 L255.007765,9.01448913 L259.846715,7.73413043 L259.795924,9.52966304 C261.458017,8.18333696 262.482798,7.73413043 263.507018,7.73413043 Z M243.757589,7.73420435 L243.757589,14.3494217 C243.757589,16.1275848 243.908841,16.460563 245.219133,16.460563 L245.219133,16.5766065 L239.189399,16.5766065 L239.189399,16.460563 C240.499131,16.460563 240.650383,16.1275848 240.650383,14.3494217 L240.650383,10.3610739 C240.650383,9.24683478 240.415102,8.79855217 238.98773,9.13097609 L238.953931,9.01456304 L243.757589,7.73420435 Z M307.377101,8.22685326 C305.813975,8.22685326 305.813975,10.9531359 305.813975,12.5481793 C305.813975,14.608875 305.832462,16.4206685 307.124641,16.4206685 C307.8964,16.4206685 308.350157,15.3736902 308.519522,14.6583967 L308.519522,9.589625 C308.519522,9.05745109 308.131868,8.22685326 307.377101,8.22685326 Z M250.122319,7.75125978 C249.299582,7.75125978 248.99633,8.39929239 248.99633,10.0117054 C248.99633,11.6575641 249.383237,12.4210859 250.239773,12.4210859 C251.348955,12.4210859 251.364454,11.0414989 251.364454,10.1279337 C251.364454,8.56541196 250.944869,7.75125978 250.122319,7.75125978 Z M225.207217,8.03122391 C223.86406,8.03122391 223.645958,9.85946304 223.645958,11.288387 L223.645958,11.4053543 C224.485501,11.488137 225.34241,11.5213978 226.11473,11.5049522 C226.433853,10.4078978 226.400615,8.03122391 225.207217,8.03122391 Z M242.19577,3.44632391 C243.202998,3.44632391 244.009303,4.2274 244.009303,5.22467174 C244.009303,6.22194348 243.202998,7.03646522 242.19577,7.03646522 C241.204975,7.03646522 240.381864,6.22194348 240.381864,5.22467174 C240.381864,4.24403043 241.204975,3.44632391 242.19577,3.44632391 Z" id="logo-designgood"></path>
            </g>
        </g>
    </g>
</svg>