<?xml version="1.0" encoding="UTF-8"?>
<svg width="274px" height="26px" viewBox="0 0 274 26" version="1.1" xmlns="http://www.w3.org/2000/svg" xmlns:xlink="http://www.w3.org/1999/xlink">
    <title>logo-jsi-landing--sage</title>
    <defs>
        <polygon id="path-1" points="0 0.267672913 11.9287124 0.267672913 11.9287124 24.473988 0 24.473988"></polygon>
        <polygon id="path-3" points="0.77145272 0.0091633248 15.6753174 0.0091633248 15.6753174 24.556392 0.77145272 24.556392"></polygon>
        <polygon id="path-5" points="0.562901724 0.267763558 18.4271001 0.267763558 18.4271001 24.473988 0.562901724 24.473988"></polygon>
        <polygon id="path-7" points="0.660139145 0.662610564 22.5885828 0.662610564 22.5885828 25.0393371 0.660139145 25.0393371"></polygon>
        <polygon id="path-9" points="0.0338872058 0.0091633248 14.9384691 0.0091633248 14.9384691 24.556392 0.0338872058 24.556392"></polygon>
    </defs>
    <g id="Page-1" stroke="none" stroke-width="1" fill="none" fill-rule="evenodd">
        <g id="JS-LOGO">
            <g id="Group-3" transform="translate(0.000000, 1.150187)">
                <mask id="mask-2" fill="white">
                    <use xlink:href="#path-1"></use>
                </mask>
                <g id="Clip-2"></g>
                <path d="M0.13225018,21.3370572 L0.575501296,20.928251 C0.745912768,20.7569331 0.91632424,20.6898562 1.15471901,20.928251 C1.90525464,21.6778802 3.09813495,23.0420784 5.3488354,23.0420784 C8.24673687,23.0420784 10.3261194,21.0297727 10.3261194,16.9734358 L10.3261194,0.710924029 C10.3261194,0.438084385 10.5309757,0.267672913 10.8038154,0.267672913 L11.4854613,0.267672913 C11.7238561,0.267672913 11.9287124,0.471622813 11.9287124,0.710924029 L11.9287124,16.938991 C11.9287124,21.7123251 9.37163387,24.4742599 5.31439053,24.4742599 C2.31406089,24.4742599 0.677929468,22.6332722 0.0987117516,21.9171814 C-0.0381612924,21.7123251 -0.0381612924,21.5065623 0.13225018,21.3370572" id="Fill-1" fill="#52706A" mask="url(#mask-2)"></path>
            </g>
            <path d="M31.870571,24.12401 C37.8367854,24.12401 42.6781029,19.3506759 42.6781029,13.3844615 C42.6781029,7.41824705 37.8367854,2.57692965 31.870571,2.57692965 C25.9043566,2.57692965 21.0974841,7.41824705 21.0974841,13.3844615 C21.0974841,19.3506759 25.9043566,24.12401 31.870571,24.12401 M31.870571,1.07676483 C38.7232877,1.07676483 44.1782677,6.56618969 44.1782677,13.3844615 C44.1782677,20.2371781 38.7232877,25.6241748 31.870571,25.6241748 C25.0522993,25.6241748 19.5973193,20.2371781 19.5973193,13.3844615 C19.5973193,6.56618969 25.0522993,1.07676483 31.870571,1.07676483" id="Fill-4" fill="#52706A"></path>
            <g id="Group-8" transform="translate(50.760864, 1.067783)">
                <mask id="mask-4" fill="white">
                    <use xlink:href="#path-3"></use>
                </mask>
                <g id="Clip-7"></g>
                <path d="M0.912970397,21.0450092 L1.22025491,20.6352965 C1.45864968,20.3624569 1.69704446,20.2609352 1.9698841,20.4984235 C2.31070704,20.805708 4.8333407,23.1243918 8.2778279,23.1243918 C11.3796793,23.1243918 14.0047411,21.0450092 14.0047411,18.555914 C14.0047411,15.5211395 11.5156459,14.1569413 7.39041922,12.7592046 C3.43651049,11.3623744 0.810542225,9.96373133 0.810542225,6.04336103 C0.810542225,3.48628251 2.85638633,0.0091633248 8.17539972,0.0091633248 C11.5500907,0.0091633248 14.039186,1.74772292 14.039186,1.74772292 C14.1751526,1.84924464 14.4144538,2.08854586 14.1751526,2.46381368 C14.0727244,2.59978028 13.9702962,2.77019175 13.9023129,2.90706479 C13.6974566,3.17990444 13.4935067,3.28142616 13.1526837,3.07747626 C13.0502556,3.00949296 10.7660167,1.47488327 8.14095485,1.47488327 C3.94683846,1.47488327 2.37869034,4.06640667 2.37869034,6.0098226 C2.37869034,8.90681763 4.59494592,10.1685877 8.03852668,11.2934847 C12.7094326,12.8960777 15.6753174,14.5322091 15.6753174,18.4879307 C15.6753174,21.8961601 12.1637533,24.5565733 8.24247658,24.5565733 C4.18613968,24.5565733 1.45864968,22.1699062 1.01539857,21.7601935 C0.810542225,21.5897821 0.640130753,21.4193706 0.912970397,21.0450092" id="Fill-6" fill="#52706A" mask="url(#mask-4)"></path>
            </g>
            <path d="M75.0253728,1.86120147 C75.0253728,1.62190025 75.2293227,1.41795035 75.4686239,1.41795035 L76.1847147,1.41795035 C76.4575543,1.41795035 76.6270593,1.62190025 76.6270593,1.86120147 L76.6270593,12.3279103 L91.9350856,12.3279103 L91.9350856,1.86120147 C91.9350856,1.62190025 92.139942,1.41795035 92.3792432,1.41795035 L93.0944275,1.41795035 C93.3672671,1.41795035 93.5376786,1.62190025 93.5376786,1.86120147 L93.5376786,24.8395569 C93.5376786,25.0779516 93.3672671,25.282808 93.0944275,25.282808 L92.3792432,25.282808 C92.139942,25.282808 91.9350856,25.0779516 91.9350856,24.8395569 L91.9350856,13.7591854 L76.6270593,13.7591854 L76.6270593,24.8395569 C76.6270593,25.0779516 76.4575543,25.282808 76.1847147,25.282808 L75.4686239,25.282808 C75.2293227,25.282808 75.0253728,25.0779516 75.0253728,24.8395569 L75.0253728,1.86120147 Z" id="Fill-9" fill="#52706A"></path>
            <g id="Group-13" transform="translate(103.334616, 1.150187)">
                <mask id="mask-6" fill="white">
                    <use xlink:href="#path-5"></use>
                </mask>
                <g id="Clip-12"></g>
                <path d="M0.562901724,0.711014674 C0.562901724,0.471713458 0.767758068,0.267763558 1.00615284,0.267763558 L1.7222436,0.267763558 C1.96063837,0.267763558 2.16549472,0.471713458 2.16549472,0.711014674 L2.16549472,15.2685053 C2.16549472,19.6665716 4.92652314,22.905296 9.46146247,22.905296 C14.0299402,22.905296 16.8254135,19.7010165 16.8254135,15.3029502 L16.8254135,0.711014674 C16.8254135,0.43817503 16.9613801,0.267763558 17.3031095,0.267763558 L17.9847554,0.267763558 C18.2231502,0.267763558 18.4271001,0.471713458 18.4271001,0.711014674 L18.4271001,15.4389168 C18.4271001,20.655502 14.8819976,24.4743506 9.46146247,24.4743506 C4.07446578,24.4743506 0.562901724,20.655502 0.562901724,15.4389168 L0.562901724,0.711014674 Z" id="Fill-11" fill="#52706A" mask="url(#mask-6)"></path>
            </g>
            <g id="Group-16" transform="translate(127.808604, 0.243743)">
                <mask id="mask-8" fill="white">
                    <use xlink:href="#path-7"></use>
                </mask>
                <g id="Clip-15"></g>
                <path d="M17.5423201,17.1297068 L11.7111658,3.38982863 L11.644089,3.38982863 L5.71231944,17.1297068 L17.5423201,17.1297068 Z M0.699684124,24.6296244 L11.2008379,0.901639847 C11.2697276,0.764766803 11.4392326,0.662338631 11.6096441,0.662338631 L11.7111658,0.662338631 C11.8824838,0.662338631 12.0538017,0.696783503 12.1553234,0.901639847 L22.554049,24.6296244 C22.6220323,24.8344808 22.6220323,25.0393371 22.2467644,25.0393371 L21.3611687,25.0393371 C21.1227739,25.0393371 20.9523624,24.8689257 20.8834727,24.7329591 L18.1224442,18.4594601 L5.09775041,18.4594601 L2.37116686,24.7329591 C2.30227712,24.8689257 2.13277209,25.0393371 1.89347087,25.0393371 L0.93898534,25.0393371 C0.699684124,25.0393371 0.597255952,24.9024641 0.699684124,24.6296244 L0.699684124,24.6296244 Z" id="Fill-14" fill="#52706A" mask="url(#mask-8)"></path>
            </g>
            <g id="Group-19" transform="translate(166.785696, 1.067783)">
                <mask id="mask-10" fill="white">
                    <use xlink:href="#path-9"></use>
                </mask>
                <g id="Clip-18"></g>
                <path d="M0.175215625,21.0450092 L0.481593697,20.6352965 C0.720894913,20.3624569 0.959289685,20.2609352 1.23303577,20.4984235 C1.57295227,20.805708 4.09558593,23.1243918 7.54007313,23.1243918 C10.6419245,23.1243918 13.2669863,21.0450092 13.2669863,18.555914 C13.2669863,15.5211395 10.7787975,14.1569413 6.65266445,12.7592046 C2.69784928,11.3623744 0.0736938972,9.96373133 0.0736938972,6.04336103 C0.0736938972,3.48628251 2.11863156,0.0091633248 7.43673851,0.0091633248 C10.812336,0.0091633248 13.3014312,1.74772292 13.3014312,1.74772292 C13.4373978,1.84924464 13.676699,2.08854586 13.4373978,2.46381368 C13.3358761,2.59978028 13.2325414,2.77019175 13.1654646,2.90706479 C12.9606082,3.17990444 12.7557519,3.28142616 12.4140225,3.07747626 C12.3125008,3.00949296 10.0282619,1.47488327 7.40410653,1.47488327 C3.20999014,1.47488327 1.64184202,4.06640667 1.64184202,6.0098226 C1.64184202,8.90681763 3.85719115,10.1685877 7.30077191,11.2934847 C11.9725843,12.8960777 14.9384691,14.5322091 14.9384691,18.4879307 C14.9384691,21.8961601 11.4259986,24.5565733 7.50562825,24.5565733 C3.44747847,24.5565733 0.720894913,22.1699062 0.276737353,21.7601935 C0.0736938972,21.5897821 -0.0976240188,21.4193706 0.175215625,21.0450092" id="Fill-17" fill="#52706A" mask="url(#mask-10)"></path>
            </g>
            <path d="M193.244162,1.31588475 C193.278607,1.17901171 193.414573,1.07658354 193.55054,1.07658354 L193.926714,1.07658354 C194.097126,1.07658354 194.198647,1.14547328 194.267537,1.31588475 L201.289759,22.2493025 L201.358649,22.2493025 L208.416222,1.31588475 C208.483298,1.14547328 208.586633,1.07658354 208.757044,1.07658354 L209.131406,1.07658354 C209.268279,1.07658354 209.405152,1.17901171 209.437784,1.31588475 L214.280008,24.839013 C214.347991,25.1807424 214.211118,25.2822641 213.90474,25.2822641 L213.087127,25.2822641 C212.882271,25.2822641 212.71186,25.1127591 212.677415,24.9079027 L208.824121,4.92897054 L208.757044,4.92897054 L201.870789,25.3511539 C201.8019,25.5551038 201.597043,25.6239935 201.393093,25.6239935 L201.25622,25.6239935 C201.084902,25.6239935 200.880953,25.5895486 200.812969,25.3511539 L193.926714,4.92897054 L193.857824,4.92897054 L190.005437,24.9079027 C189.971899,25.1127591 189.800581,25.2822641 189.595725,25.2822641 L188.779019,25.2822641 C188.470828,25.2822641 188.334861,25.1807424 188.402844,24.839013 L193.244162,1.31588475 Z" id="Fill-20" fill="#52706A"></path>
            <path d="M223.002356,1.86120147 C223.002356,1.62190025 223.207212,1.41795035 223.445607,1.41795035 L224.196143,1.41795035 C224.434537,1.41795035 224.639394,1.62190025 224.639394,1.86120147 L224.639394,24.8395569 C224.639394,25.1123965 224.400092,25.282808 224.161698,25.282808 L223.445607,25.282808 C223.207212,25.282808 223.002356,25.0779516 223.002356,24.8395569 L223.002356,1.86120147 Z" id="Fill-22" fill="#52706A"></path>
            <path d="M238.888149,2.88357965 L232.375349,2.88357965 C232.034526,2.88357965 231.933005,2.67872331 231.933005,2.37234524 L231.933005,1.86111082 C231.933005,1.58827118 232.137861,1.4178597 232.375349,1.4178597 L247.035268,1.4178597 C247.309014,1.4178597 247.479426,1.6218096 247.479426,1.86111082 L247.479426,2.44032854 C247.479426,2.67872331 247.309014,2.88357965 247.035268,2.88357965 L240.489836,2.88357965 L240.489836,24.8394662 C240.489836,25.077861 240.285886,25.2827173 239.944157,25.2827173 L239.330494,25.2827173 C239.093006,25.2827173 238.888149,25.077861 238.888149,24.8394662 L238.888149,2.88357965 Z" id="Fill-24" fill="#52706A"></path>
            <path d="M254.772583,1.86120147 C254.772583,1.62190025 254.97744,1.41795035 255.215835,1.41795035 L255.931019,1.41795035 C256.204765,1.41795035 256.375176,1.62190025 256.375176,1.86120147 L256.375176,12.3279103 L271.683203,12.3279103 L271.683203,1.86120147 C271.683203,1.62190025 271.887153,1.41795035 272.125547,1.41795035 L272.842545,1.41795035 C273.113571,1.41795035 273.283983,1.62190025 273.283983,1.86120147 L273.283983,24.8395569 C273.283983,25.0779516 273.113571,25.282808 272.842545,25.282808 L272.125547,25.282808 C271.887153,25.282808 271.683203,25.0779516 271.683203,24.8395569 L271.683203,13.7591854 L256.375176,13.7591854 L256.375176,24.8395569 C256.375176,25.0779516 256.204765,25.282808 255.931019,25.282808 L255.215835,25.282808 C254.97744,25.282808 254.772583,25.0779516 254.772583,24.8395569 L254.772583,1.86120147 Z" id="Fill-26" fill="#52706A"></path>
        </g>
    </g>
</svg>