<?xml version="1.0" encoding="UTF-8"?>
<svg width="274px" height="99px" viewBox="0 0 274 99" version="1.1" xmlns="http://www.w3.org/2000/svg" xmlns:xlink="http://www.w3.org/1999/xlink">
    <title>logo-jsi-landing</title>
    <defs>
        <polygon id="path-1" points="0 0.267672913 11.9287124 0.267672913 11.9287124 24.473988 0 24.473988"></polygon>
        <polygon id="path-3" points="0.77145272 0.0091633248 15.6753174 0.0091633248 15.6753174 24.556392 0.77145272 24.556392"></polygon>
        <polygon id="path-5" points="0.562901724 0.267763558 18.4271001 0.267763558 18.4271001 24.473988 0.562901724 24.473988"></polygon>
        <polygon id="path-7" points="0.660139145 0.662610564 22.5885828 0.662610564 22.5885828 25.0393371 0.660139145 25.0393371"></polygon>
        <polygon id="path-9" points="0.0338872058 0.0091633248 14.9384691 0.0091633248 14.9384691 24.556392 0.0338872058 24.556392"></polygon>
    </defs>
    <g id="Page-1" stroke="none" stroke-width="1" fill="none" fill-rule="evenodd">
        <g id="Placeholder-Page" transform="translate(-148.000000, -513.000000)">
            <g id="logo-jsi-landing" transform="translate(148.000000, 513.000000)">
                <g id="JS-LOGO">
                    <g id="Group-3" transform="translate(0.000000, 1.150187)">
                        <mask id="mask-2" fill="white">
                            <use xlink:href="#path-1"></use>
                        </mask>
                        <g id="Clip-2"></g>
                        <path d="M0.13225018,21.3370572 L0.575501296,20.928251 C0.745912768,20.7569331 0.91632424,20.6898562 1.15471901,20.928251 C1.90525464,21.6778802 3.09813495,23.0420784 5.3488354,23.0420784 C8.24673687,23.0420784 10.3261194,21.0297727 10.3261194,16.9734358 L10.3261194,0.710924029 C10.3261194,0.438084385 10.5309757,0.267672913 10.8038154,0.267672913 L11.4854613,0.267672913 C11.7238561,0.267672913 11.9287124,0.471622813 11.9287124,0.710924029 L11.9287124,16.938991 C11.9287124,21.7123251 9.37163387,24.4742599 5.31439053,24.4742599 C2.31406089,24.4742599 0.677929468,22.6332722 0.0987117516,21.9171814 C-0.0381612924,21.7123251 -0.0381612924,21.5065623 0.13225018,21.3370572" id="Fill-1" fill="#52706A" mask="url(#mask-2)"></path>
                    </g>
                    <path d="M31.870571,24.12401 C37.8367854,24.12401 42.6781029,19.3506759 42.6781029,13.3844615 C42.6781029,7.41824705 37.8367854,2.57692965 31.870571,2.57692965 C25.9043566,2.57692965 21.0974841,7.41824705 21.0974841,13.3844615 C21.0974841,19.3506759 25.9043566,24.12401 31.870571,24.12401 M31.870571,1.07676483 C38.7232877,1.07676483 44.1782677,6.56618969 44.1782677,13.3844615 C44.1782677,20.2371781 38.7232877,25.6241748 31.870571,25.6241748 C25.0522993,25.6241748 19.5973193,20.2371781 19.5973193,13.3844615 C19.5973193,6.56618969 25.0522993,1.07676483 31.870571,1.07676483" id="Fill-4" fill="#52706A"></path>
                    <g id="Group-8" transform="translate(50.760864, 1.067783)">
                        <mask id="mask-4" fill="white">
                            <use xlink:href="#path-3"></use>
                        </mask>
                        <g id="Clip-7"></g>
                        <path d="M0.912970397,21.0450092 L1.22025491,20.6352965 C1.45864968,20.3624569 1.69704446,20.2609352 1.9698841,20.4984235 C2.31070704,20.805708 4.8333407,23.1243918 8.2778279,23.1243918 C11.3796793,23.1243918 14.0047411,21.0450092 14.0047411,18.555914 C14.0047411,15.5211395 11.5156459,14.1569413 7.39041922,12.7592046 C3.43651049,11.3623744 0.810542225,9.96373133 0.810542225,6.04336103 C0.810542225,3.48628251 2.85638633,0.0091633248 8.17539972,0.0091633248 C11.5500907,0.0091633248 14.039186,1.74772292 14.039186,1.74772292 C14.1751526,1.84924464 14.4144538,2.08854586 14.1751526,2.46381368 C14.0727244,2.59978028 13.9702962,2.77019175 13.9023129,2.90706479 C13.6974566,3.17990444 13.4935067,3.28142616 13.1526837,3.07747626 C13.0502556,3.00949296 10.7660167,1.47488327 8.14095485,1.47488327 C3.94683846,1.47488327 2.37869034,4.06640667 2.37869034,6.0098226 C2.37869034,8.90681763 4.59494592,10.1685877 8.03852668,11.2934847 C12.7094326,12.8960777 15.6753174,14.5322091 15.6753174,18.4879307 C15.6753174,21.8961601 12.1637533,24.5565733 8.24247658,24.5565733 C4.18613968,24.5565733 1.45864968,22.1699062 1.01539857,21.7601935 C0.810542225,21.5897821 0.640130753,21.4193706 0.912970397,21.0450092" id="Fill-6" fill="#52706A" mask="url(#mask-4)"></path>
                    </g>
                    <path d="M75.0253728,1.86120147 C75.0253728,1.62190025 75.2293227,1.41795035 75.4686239,1.41795035 L76.1847147,1.41795035 C76.4575543,1.41795035 76.6270593,1.62190025 76.6270593,1.86120147 L76.6270593,12.3279103 L91.9350856,12.3279103 L91.9350856,1.86120147 C91.9350856,1.62190025 92.139942,1.41795035 92.3792432,1.41795035 L93.0944275,1.41795035 C93.3672671,1.41795035 93.5376786,1.62190025 93.5376786,1.86120147 L93.5376786,24.8395569 C93.5376786,25.0779516 93.3672671,25.282808 93.0944275,25.282808 L92.3792432,25.282808 C92.139942,25.282808 91.9350856,25.0779516 91.9350856,24.8395569 L91.9350856,13.7591854 L76.6270593,13.7591854 L76.6270593,24.8395569 C76.6270593,25.0779516 76.4575543,25.282808 76.1847147,25.282808 L75.4686239,25.282808 C75.2293227,25.282808 75.0253728,25.0779516 75.0253728,24.8395569 L75.0253728,1.86120147 Z" id="Fill-9" fill="#52706A"></path>
                    <g id="Group-13" transform="translate(103.334616, 1.150187)">
                        <mask id="mask-6" fill="white">
                            <use xlink:href="#path-5"></use>
                        </mask>
                        <g id="Clip-12"></g>
                        <path d="M0.562901724,0.711014674 C0.562901724,0.471713458 0.767758068,0.267763558 1.00615284,0.267763558 L1.7222436,0.267763558 C1.96063837,0.267763558 2.16549472,0.471713458 2.16549472,0.711014674 L2.16549472,15.2685053 C2.16549472,19.6665716 4.92652314,22.905296 9.46146247,22.905296 C14.0299402,22.905296 16.8254135,19.7010165 16.8254135,15.3029502 L16.8254135,0.711014674 C16.8254135,0.43817503 16.9613801,0.267763558 17.3031095,0.267763558 L17.9847554,0.267763558 C18.2231502,0.267763558 18.4271001,0.471713458 18.4271001,0.711014674 L18.4271001,15.4389168 C18.4271001,20.655502 14.8819976,24.4743506 9.46146247,24.4743506 C4.07446578,24.4743506 0.562901724,20.655502 0.562901724,15.4389168 L0.562901724,0.711014674 Z" id="Fill-11" fill="#52706A" mask="url(#mask-6)"></path>
                    </g>
                    <g id="Group-16" transform="translate(127.808604, 0.243743)">
                        <mask id="mask-8" fill="white">
                            <use xlink:href="#path-7"></use>
                        </mask>
                        <g id="Clip-15"></g>
                        <path d="M17.5423201,17.1297068 L11.7111658,3.38982863 L11.644089,3.38982863 L5.71231944,17.1297068 L17.5423201,17.1297068 Z M0.699684124,24.6296244 L11.2008379,0.901639847 C11.2697276,0.764766803 11.4392326,0.662338631 11.6096441,0.662338631 L11.7111658,0.662338631 C11.8824838,0.662338631 12.0538017,0.696783503 12.1553234,0.901639847 L22.554049,24.6296244 C22.6220323,24.8344808 22.6220323,25.0393371 22.2467644,25.0393371 L21.3611687,25.0393371 C21.1227739,25.0393371 20.9523624,24.8689257 20.8834727,24.7329591 L18.1224442,18.4594601 L5.09775041,18.4594601 L2.37116686,24.7329591 C2.30227712,24.8689257 2.13277209,25.0393371 1.89347087,25.0393371 L0.93898534,25.0393371 C0.699684124,25.0393371 0.597255952,24.9024641 0.699684124,24.6296244 L0.699684124,24.6296244 Z" id="Fill-14" fill="#52706A" mask="url(#mask-8)"></path>
                    </g>
                    <g id="Group-19" transform="translate(166.785696, 1.067783)">
                        <mask id="mask-10" fill="white">
                            <use xlink:href="#path-9"></use>
                        </mask>
                        <g id="Clip-18"></g>
                        <path d="M0.175215625,21.0450092 L0.481593697,20.6352965 C0.720894913,20.3624569 0.959289685,20.2609352 1.23303577,20.4984235 C1.57295227,20.805708 4.09558593,23.1243918 7.54007313,23.1243918 C10.6419245,23.1243918 13.2669863,21.0450092 13.2669863,18.555914 C13.2669863,15.5211395 10.7787975,14.1569413 6.65266445,12.7592046 C2.69784928,11.3623744 0.0736938972,9.96373133 0.0736938972,6.04336103 C0.0736938972,3.48628251 2.11863156,0.0091633248 7.43673851,0.0091633248 C10.812336,0.0091633248 13.3014312,1.74772292 13.3014312,1.74772292 C13.4373978,1.84924464 13.676699,2.08854586 13.4373978,2.46381368 C13.3358761,2.59978028 13.2325414,2.77019175 13.1654646,2.90706479 C12.9606082,3.17990444 12.7557519,3.28142616 12.4140225,3.07747626 C12.3125008,3.00949296 10.0282619,1.47488327 7.40410653,1.47488327 C3.20999014,1.47488327 1.64184202,4.06640667 1.64184202,6.0098226 C1.64184202,8.90681763 3.85719115,10.1685877 7.30077191,11.2934847 C11.9725843,12.8960777 14.9384691,14.5322091 14.9384691,18.4879307 C14.9384691,21.8961601 11.4259986,24.5565733 7.50562825,24.5565733 C3.44747847,24.5565733 0.720894913,22.1699062 0.276737353,21.7601935 C0.0736938972,21.5897821 -0.0976240188,21.4193706 0.175215625,21.0450092" id="Fill-17" fill="#52706A" mask="url(#mask-10)"></path>
                    </g>
                    <path d="M193.244162,1.31588475 C193.278607,1.17901171 193.414573,1.07658354 193.55054,1.07658354 L193.926714,1.07658354 C194.097126,1.07658354 194.198647,1.14547328 194.267537,1.31588475 L201.289759,22.2493025 L201.358649,22.2493025 L208.416222,1.31588475 C208.483298,1.14547328 208.586633,1.07658354 208.757044,1.07658354 L209.131406,1.07658354 C209.268279,1.07658354 209.405152,1.17901171 209.437784,1.31588475 L214.280008,24.839013 C214.347991,25.1807424 214.211118,25.2822641 213.90474,25.2822641 L213.087127,25.2822641 C212.882271,25.2822641 212.71186,25.1127591 212.677415,24.9079027 L208.824121,4.92897054 L208.757044,4.92897054 L201.870789,25.3511539 C201.8019,25.5551038 201.597043,25.6239935 201.393093,25.6239935 L201.25622,25.6239935 C201.084902,25.6239935 200.880953,25.5895486 200.812969,25.3511539 L193.926714,4.92897054 L193.857824,4.92897054 L190.005437,24.9079027 C189.971899,25.1127591 189.800581,25.2822641 189.595725,25.2822641 L188.779019,25.2822641 C188.470828,25.2822641 188.334861,25.1807424 188.402844,24.839013 L193.244162,1.31588475 Z" id="Fill-20" fill="#52706A"></path>
                    <path d="M223.002356,1.86120147 C223.002356,1.62190025 223.207212,1.41795035 223.445607,1.41795035 L224.196143,1.41795035 C224.434537,1.41795035 224.639394,1.62190025 224.639394,1.86120147 L224.639394,24.8395569 C224.639394,25.1123965 224.400092,25.282808 224.161698,25.282808 L223.445607,25.282808 C223.207212,25.282808 223.002356,25.0779516 223.002356,24.8395569 L223.002356,1.86120147 Z" id="Fill-22" fill="#52706A"></path>
                    <path d="M238.888149,2.88357965 L232.375349,2.88357965 C232.034526,2.88357965 231.933005,2.67872331 231.933005,2.37234524 L231.933005,1.86111082 C231.933005,1.58827118 232.137861,1.4178597 232.375349,1.4178597 L247.035268,1.4178597 C247.309014,1.4178597 247.479426,1.6218096 247.479426,1.86111082 L247.479426,2.44032854 C247.479426,2.67872331 247.309014,2.88357965 247.035268,2.88357965 L240.489836,2.88357965 L240.489836,24.8394662 C240.489836,25.077861 240.285886,25.2827173 239.944157,25.2827173 L239.330494,25.2827173 C239.093006,25.2827173 238.888149,25.077861 238.888149,24.8394662 L238.888149,2.88357965 Z" id="Fill-24" fill="#52706A"></path>
                    <path d="M254.772583,1.86120147 C254.772583,1.62190025 254.97744,1.41795035 255.215835,1.41795035 L255.931019,1.41795035 C256.204765,1.41795035 256.375176,1.62190025 256.375176,1.86120147 L256.375176,12.3279103 L271.683203,12.3279103 L271.683203,1.86120147 C271.683203,1.62190025 271.887153,1.41795035 272.125547,1.41795035 L272.842545,1.41795035 C273.113571,1.41795035 273.283983,1.62190025 273.283983,1.86120147 L273.283983,24.8395569 C273.283983,25.0779516 273.113571,25.282808 272.842545,25.282808 L272.125547,25.282808 C271.887153,25.282808 271.683203,25.0779516 271.683203,24.8395569 L271.683203,13.7591854 L256.375176,13.7591854 L256.375176,24.8395569 C256.375176,25.0779516 256.204765,25.282808 255.931019,25.282808 L255.215835,25.282808 C254.97744,25.282808 254.772583,25.0779516 254.772583,24.8395569 L254.772583,1.86120147 Z" id="Fill-26" fill="#52706A"></path>
                </g>
                <path d="M29.86349,68.981 C30.88949,68.981 31.30749,69.019 31.30749,69.019 L31.13649,68.696 C31.12053,68.6656 31.1050868,68.6362944 31.0901446,68.6076904 L31.0468051,68.5235907 L31.0468051,68.5235907 L31.0063768,68.4413441 C30.7333459,67.8666053 30.6673098,67.2548649 30.6618706,62.9686984 L30.66149,56.517 L31.93449,56.517 C32.82749,56.517 33.56849,56.707 34.02449,56.973 C34.55649,57.296 34.68949,57.467 34.70849,57.486 C34.70849,57.448 34.65149,57.106 34.65149,56.384 C34.65149,55.757 34.67049,55.472 34.67049,55.472 L25.03749,55.472 C25.03749,55.472 25.05649,55.757 25.05649,56.384 C25.05649,57.106 24.99949,57.467 24.99949,57.486 C25.01849,57.448 25.18949,57.277 25.68349,56.973 C26.13949,56.707 26.88049,56.517 27.77349,56.517 L29.04649,56.517 L29.0460402,62.7862755 C29.0386007,67.8523372 28.936588,68.0023137 28.57149,68.696 L28.40049,69.019 C28.40049,69.019 28.83749,68.981 29.86349,68.981 Z M53.051325,69.076 C53.849325,69.076 54.115325,68.943 54.115325,68.943 C53.317325,68.601 52.785325,67.746 52.082325,66.606 L51.208325,65.2 C50.182325,63.547 49.593325,62.635 47.940325,62.426 C51.588325,62.483 52.177325,60.165 52.177325,58.854 C52.177325,55.624 49.327325,55.453 47.256325,55.453 C46.572325,55.453 45.736325,55.491 45.185325,55.491 C44.444325,55.491 43.931325,55.453 43.931325,55.453 L44.102325,55.776 C44.118285,55.8064 44.1337282,55.8357056 44.1486704,55.8643096 L44.1920099,55.9484093 L44.1920099,55.9484093 L44.2324382,56.0306559 C44.2519404,56.0717087 44.2703865,56.1129503 44.2878299,56.1557062 L44.3213955,56.24363 C44.5257099,56.8182438 44.5748463,57.7776201 44.5772318,61.8157545 L44.577325,62.141 C44.577325,66.7233529 44.5159275,67.7200896 44.2944148,68.3000453 L44.2608438,68.3823094 C44.214528,68.4890088 44.1619328,68.5857255 44.102325,68.696 L43.931325,69.019 C43.931325,69.019 44.368325,68.981 45.394325,68.981 C46.420325,68.981 46.819325,69.019 46.819325,69.019 L46.648325,68.696 L46.6222008,68.6458707 L46.6222008,68.6458707 L46.5727585,68.5478676 C46.2553975,67.900235 46.1802357,67.3096493 46.1737971,63.3332792 L46.173325,62.711 L46.173325,62.711 C46.173325,62.711 46.325325,62.692 46.515325,62.692 C47.579325,62.692 47.807325,63.053 49.042325,64.934 L50.467325,67.1 C51.360325,68.449 51.797325,69.076 53.051325,69.076 Z M47.332325,61.704 C46.591325,61.704 46.173325,61.666 46.173325,61.666 L46.173325,56.517 C46.173325,56.517 46.1865194,56.5159444 46.2108852,56.5141852 L46.3154731,56.5071481 C46.4942139,56.4958889 46.819325,56.479 47.161325,56.479 C48.947325,56.479 50.391325,56.707 50.391325,59.025 C50.391325,60.64 49.517325,61.495 48.491325,61.628 C48.168325,61.666 47.541325,61.704 47.332325,61.704 Z M62.67316,68.981 C63.66116,68.981 64.25016,69.019 64.25016,69.019 C64.00316,68.848 63.64216,68.525 63.64216,67.822 C63.64216,67.157 64.00316,65.96 64.42116,64.554 L64.80116,63.281 L69.09516,63.281 L69.47516,64.554 C69.89316,65.96 70.25416,67.157 70.25416,67.822 C70.25416,68.525 69.89316,68.848 69.64616,69.019 C69.64616,69.019 70.33016,68.981 71.31816,68.981 C72.36316,68.981 72.99016,69.019 72.99016,69.019 C72.28716,68.335 71.94516,67.157 71.16616,64.516 L68.81016,56.593 C68.73416,56.365 68.67716,56.137 68.67716,55.89 C68.67716,55.624 68.79116,55.51 68.79116,55.491 L65.58016,55.491 C65.61816,55.529 65.71316,55.643 65.71316,55.89 C65.71316,56.137 65.63716,56.365 65.56116,56.593 L63.03416,64.516 C62.19816,67.138 61.83716,68.335 61.13416,69.019 C61.13416,69.019 61.62816,68.981 62.67316,68.981 Z M68.77216,62.141 L65.14316,62.141 L66.98616,56.08 C66.98616,56.08 67.19516,56.802 67.40416,57.505 L68.77216,62.141 Z M90.5585612,69.012782 L90.740553,68.9998097 C90.914208,68.989432 91.142995,68.981 91.427995,68.981 C91.950495,68.981 92.3146617,69.0205833 92.4215367,69.0337778 L92.453995,69.038 L92.453995,69.038 L92.472995,62.331 C92.4901323,57.1898235 92.5536409,56.5466724 92.8308217,55.9680776 L92.8878255,55.8544682 C92.9011196,55.8288581 92.9148381,55.8028235 92.928995,55.776 L93.099995,55.453 C93.099995,55.453 92.7723419,55.4857653 92.025761,55.4904461 L91.845995,55.491 C90.971995,55.491 90.534995,55.453 90.534995,55.453 L90.705995,55.776 C90.761855,55.8824 90.8113842,55.9753936 90.8552604,56.0718207 L90.8914999,56.1557062 L90.8914999,56.1557062 L90.9250655,56.24363 C91.1186265,56.788001 91.1729142,57.6776989 91.1801208,61.2033468 L91.180995,67.727 L91.1727082,67.694821 C91.1364083,67.5581111 90.9783283,67.0037333 90.648995,66.378 L84.815995,55.453 C84.815995,55.453 84.4719593,55.4857653 83.7078255,55.4904461 L83.523995,55.491 C82.421995,55.491 82.041995,55.453 82.041995,55.453 L82.212995,55.776 C82.268855,55.8824 82.3183842,55.9753936 82.3622604,56.0718207 L82.3984999,56.1557062 L82.3984999,56.1557062 L82.4320655,56.24363 C82.6256265,56.788001 82.6799142,57.6776989 82.6871208,61.2033468 L82.687461,62.786444 C82.6795706,67.3379806 82.5829445,67.9504839 82.3121745,68.5039224 L82.2741639,68.5793896 C82.2676463,68.5920279 82.2610366,68.6047268 82.254334,68.6175318 L82.212995,68.696 L82.212995,68.696 L82.041995,69.019 C82.041995,69.019 82.421995,68.981 83.295995,68.981 C84.169995,68.981 84.606995,69.019 84.606995,69.019 L84.435995,68.696 L84.3896496,68.6076904 C84.3522941,68.5361805 84.3180698,68.4690558 84.2867296,68.4001793 L84.2504901,68.3162938 L84.2504901,68.3162938 L84.2169245,68.22837 C84.0233635,67.683999 83.9690758,66.7943011 83.9618692,63.2686532 L83.9610882,62.6562455 C83.9610254,62.5499788 83.960995,62.44158 83.960995,62.331 L83.960995,56.745 C83.960995,56.745 84.169995,57.543 84.473995,58.094 L90.325995,69.038 C90.325995,69.038 90.4028944,69.025858 90.5585612,69.012782 L90.5585612,69.012782 Z M106.36983,69.133 C109.02983,69.133 110.83483,68.202 110.83483,65.675 C110.83483,63.414 109.46683,62.711 108.02283,61.742 L106.67383,60.83 C105.60983,60.108 104.81183,59.595 104.81183,58.417 C104.81183,56.498 106.65483,56.46 107.30083,56.46 C108.80183,56.46 109.54283,57.144 110.35983,58.322 C110.35983,58.322 110.32183,57.79 110.32183,57.049 C110.32183,56.327 110.35983,55.89 110.35983,55.89 C110.35983,55.89 109.27683,55.339 107.39583,55.339 C104.29883,55.339 103.23483,56.954 103.23483,58.588 C103.23483,60.4964444 104.465842,61.369037 105.620125,62.126535 L105.90634,62.3140445 C105.953524,62.3450741 106.000386,62.376037 106.04683,62.407 L107.77583,63.566 C108.59283,64.117 109.23883,64.687 109.23883,65.903 C109.23883,67.86 107.50983,68.012 106.38883,68.012 C104.73583,68.012 103.95683,67.252 103.13983,66.074 C103.13983,66.074 103.172595,66.6146276 103.177276,67.2851461 L103.17783,67.442 C103.17783,68.107 103.13983,68.544 103.13983,68.544 C103.13983,68.544 104.20383,69.133 106.36983,69.133 Z M122.375665,68.981 C123.401665,68.981 123.819665,69.019 123.819665,69.019 L123.648665,68.696 C123.249665,67.936 123.173665,67.822 123.173665,62.749 L125.339665,62.749 C126.232665,62.749 126.973665,62.844 127.429665,63.11 C127.784332,63.3253333 127.961665,63.4731111 128.046109,63.5533333 L128.093346,63.6008333 C128.104165,63.6124444 128.110498,63.6198333 128.113665,63.623 L128.110033,63.5711457 C128.097476,63.4145621 128.056665,62.9273077 128.056665,62.236 C128.056665,61.4 128.113665,60.849 128.113665,60.83 C128.075665,60.868 127.923665,61.039 127.429665,61.324 C126.973665,61.59 126.232665,61.685 125.339665,61.685 L123.173665,61.685 L123.173665,56.555 L125.795665,56.555 C126.688665,56.555 127.429665,56.707 127.885665,56.973 C128.240332,57.1883333 128.417665,57.3361111 128.502109,57.4163333 L128.549346,57.4638333 C128.560165,57.4754444 128.566498,57.4828333 128.569665,57.486 C128.569665,57.448 128.512665,57.106 128.512665,56.384 C128.512665,55.757 128.531665,55.472 128.531665,55.472 L121.959241,55.4710767 C121.207629,55.4672711 120.893665,55.453 120.893665,55.453 L121.064665,55.776 C121.096585,55.8368 121.126438,55.8932224 121.15435,55.9484093 L121.194778,56.0306559 C121.467809,56.6053947 121.533845,57.2171351 121.539284,61.5033016 L121.539215,62.7862755 C121.532079,67.6455592 121.437933,67.9818807 121.108067,68.613405 L121.064665,68.696 L121.064665,68.696 L120.893665,69.019 C120.893665,69.019 121.349665,68.981 122.375665,68.981 Z M143.7585,69.228 C149.503907,69.228 149.734134,63.6418854 149.74314,62.1152846 L149.7435,61.97 L149.7435,61.97 C149.7435,58.037 147.5965,55.32 143.7775,55.32 C138.032093,55.32 137.801866,60.9061146 137.79286,62.4327154 L137.7925,62.578 L137.7925,62.578 C137.7925,66.511 139.9395,69.228 143.7585,69.228 Z M143.7775,68.088 C141.6305,68.088 139.5975,66.758 139.5975,62.35 C139.5975,57.847 141.6875,56.46 143.7585,56.46 C145.9055,56.46 147.9385,57.79 147.9385,62.198 C147.9385,66.701 145.8485,68.088 143.7775,68.088 Z M169.036335,69.076 C169.834335,69.076 170.100335,68.943 170.100335,68.943 C169.302335,68.601 168.770335,67.746 168.067335,66.606 L167.193335,65.2 C166.167335,63.547 165.578335,62.635 163.925335,62.426 C167.573335,62.483 168.162335,60.165 168.162335,58.854 C168.162335,55.624 165.312335,55.453 163.241335,55.453 C162.557335,55.453 161.721335,55.491 161.170335,55.491 C160.429335,55.491 159.916335,55.453 159.916335,55.453 L160.087335,55.776 C160.103295,55.8064 160.118738,55.8357056 160.13368,55.8643096 L160.17702,55.9484093 L160.17702,55.9484093 L160.217448,56.0306559 C160.23695,56.0717087 160.255397,56.1129503 160.27284,56.1557062 L160.306405,56.24363 C160.51072,56.8182438 160.559856,57.7776201 160.562242,61.8157545 L160.562335,62.141 C160.562335,66.7233529 160.500937,67.7200896 160.279425,68.3000453 L160.245854,68.3823094 C160.199538,68.4890088 160.146943,68.5857255 160.087335,68.696 L159.916335,69.019 C159.916335,69.019 160.353335,68.981 161.379335,68.981 C162.405335,68.981 162.804335,69.019 162.804335,69.019 L162.633335,68.696 L162.607211,68.6458707 L162.607211,68.6458707 L162.557768,68.5478676 C162.240407,67.900235 162.165246,67.3096493 162.158807,63.3332792 L162.158335,62.711 L162.158335,62.711 C162.158335,62.711 162.310335,62.692 162.500335,62.692 C163.564335,62.692 163.792335,63.053 165.027335,64.934 L166.452335,67.1 C167.345335,68.449 167.782335,69.076 169.036335,69.076 Z M163.317335,61.704 C162.576335,61.704 162.158335,61.666 162.158335,61.666 L162.158335,56.517 C162.158335,56.517 162.171529,56.5159444 162.195895,56.5141852 L162.300483,56.5071481 C162.479224,56.4958889 162.804335,56.479 163.146335,56.479 C164.932335,56.479 166.376335,56.707 166.376335,59.025 C166.376335,60.64 165.502335,61.495 164.476335,61.628 C164.153335,61.666 163.526335,61.704 163.317335,61.704 Z M180.06417,68.981 C180.93817,68.981 181.39417,69.019 181.39417,69.019 L181.22317,68.696 C181.20721,68.6656 181.191706,68.6362944 181.176648,68.6076904 L181.132804,68.5235907 C181.125717,68.5097939 181.118738,68.4960744 181.111868,68.482383 L181.071931,68.4001793 C180.827075,67.8767177 180.734543,67.2520722 180.727612,63.832247 L180.727538,62.9686984 C180.7277,62.8666468 180.727918,62.7625122 180.728191,62.6562455 L180.74817,56.137 C180.74817,56.137 180.95717,56.954 181.14717,57.391 L184.92817,66.587 L188.78517,57.315 C188.97517,56.84 189.14617,56.08 189.14617,56.08 L189.14617,62.141 C189.14617,66.9468824 189.092143,67.8223068 188.836045,68.3886655 L188.798984,68.4660509 C188.760582,68.5421592 188.718111,68.6155294 188.67117,68.696 L188.48117,69.019 C188.48117,69.019 188.91817,68.981 189.94417,68.981 C190.97017,68.981 191.36917,69.019 191.36917,69.019 L191.19817,68.696 C191.14231,68.5896 191.092781,68.4966064 191.048905,68.4001793 L191.012665,68.3162938 C190.785901,67.7604668 190.728601,66.9487101 190.723551,62.9686984 L190.72362,61.6856403 C190.729845,57.4455632 190.802283,56.6365251 191.039651,56.0896906 L191.075577,56.01117 C191.112703,55.9337855 191.153464,55.8587059 191.19817,55.776 L191.36917,55.453 C191.36917,55.453 190.77333,55.5026533 189.98329,55.5092738 L189.81117,55.51 C188.97517,55.51 188.32917,55.472 188.32917,55.472 L185.34617,62.578 C185.17517,62.996 185.13717,63.167 185.13717,63.167 C185.13717,63.167 185.08017,62.92 184.92817,62.559 L182.00217,55.434 C182.00217,55.434 181.472534,55.4836533 180.691322,55.4902738 L180.52017,55.491 C179.58917,55.491 178.82917,55.453 178.82917,55.453 L179.00017,55.776 C179.03209,55.8368 179.061821,55.8932224 179.08951,55.9484093 L179.129528,56.0306559 C179.135949,56.0443402 179.142246,56.0580454 179.148422,56.0718207 L179.18405,56.1557062 L179.18405,56.1557062 L179.216886,56.24363 C179.416245,56.8182438 179.45428,57.7776201 179.456099,61.8157545 L179.45617,62.141 C179.45617,66.7233529 179.394772,67.7200896 179.183132,68.3000453 L179.151077,68.3823094 C179.145552,68.3956469 179.139936,68.4088283 179.134226,68.4218997 L179.098837,68.4993762 C179.068398,68.5634529 179.035562,68.6270784 179.00017,68.696 L178.82917,69.019 C178.82917,69.019 179.19017,68.981 180.06417,68.981 Z M203.423005,68.981 C204.449005,68.981 204.867005,69.019 204.867005,69.019 L204.696005,68.696 C204.640145,68.5896 204.590616,68.4966064 204.54674,68.4001793 L204.5105,68.3162938 L204.5105,68.3162938 L204.476935,68.22837 C204.283373,67.683999 204.229086,66.7943011 204.221879,63.2686532 L204.221455,61.6857245 C204.228894,56.6196628 204.330907,56.4696863 204.696005,55.776 L204.867005,55.453 C204.867005,55.453 204.486329,55.4861022 203.601397,55.4905159 L203.404005,55.491 C202.378005,55.491 201.960005,55.453 201.960005,55.453 L202.131005,55.776 C202.186865,55.8824 202.236394,55.9753936 202.28027,56.0718207 L202.31651,56.1557062 L202.31651,56.1557062 L202.350075,56.24363 C202.543637,56.788001 202.597924,57.6776989 202.605131,61.2033468 L202.605912,61.8157545 C202.605975,61.9220212 202.606005,62.03042 202.606005,62.141 C202.606005,67.841 202.511005,67.974 202.131005,68.696 L201.960005,69.019 C201.960005,69.019 202.397005,68.981 203.423005,68.981 Z M223.936406,69.012782 L224.118398,68.9998097 C224.292053,68.989432 224.52084,68.981 224.80584,68.981 C225.32834,68.981 225.692507,69.0205833 225.799382,69.0337778 L225.83184,69.038 L225.83184,69.038 L225.85084,62.331 C225.867977,57.1898235 225.931486,56.5466724 226.208667,55.9680776 L226.265671,55.8544682 C226.278965,55.8288581 226.292683,55.8028235 226.30684,55.776 L226.47784,55.453 C226.47784,55.453 226.150187,55.4857653 225.403606,55.4904461 L225.22384,55.491 C224.34984,55.491 223.91284,55.453 223.91284,55.453 L224.08384,55.776 C224.1397,55.8824 224.189229,55.9753936 224.233105,56.0718207 L224.269345,56.1557062 C224.496109,56.7115332 224.553409,57.5232899 224.558459,61.5033016 L224.55884,67.727 L224.550553,67.694821 C224.514253,67.5581111 224.356173,67.0037333 224.02684,66.378 L218.19384,55.453 C218.19384,55.453 217.849804,55.4857653 217.085671,55.4904461 L216.90184,55.491 C215.79984,55.491 215.41984,55.453 215.41984,55.453 L215.59084,55.776 C215.6467,55.8824 215.696229,55.9753936 215.740105,56.0718207 L215.776345,56.1557062 C216.003109,56.7115332 216.060409,57.5232899 216.065459,61.5033016 L216.065306,62.786444 C216.057416,67.3379806 215.960789,67.9504839 215.69002,68.5039224 L215.652009,68.5793896 C215.645491,68.5920279 215.638882,68.6047268 215.632179,68.6175318 L215.59084,68.696 L215.59084,68.696 L215.41984,69.019 C215.41984,69.019 215.79984,68.981 216.67384,68.981 C217.54784,68.981 217.98484,69.019 217.98484,69.019 L217.81384,68.696 L217.767495,68.6076904 C217.730139,68.5361805 217.695915,68.4690558 217.664575,68.4001793 L217.628335,68.3162938 L217.628335,68.3162938 L217.59477,68.22837 C217.390455,67.6537562 217.341319,66.6943799 217.338933,62.6562455 L217.33884,56.745 C217.33884,56.745 217.54784,57.543 217.85184,58.094 L223.70384,69.038 C223.70384,69.038 223.780739,69.025858 223.936406,69.012782 L223.936406,69.012782 Z M243.452675,69.133 C245.637675,69.133 246.891675,68.582 246.891675,68.582 L246.891675,68.468 C246.891675,64.003 247.005675,63.699 247.366675,63.034 L247.537675,62.711 C247.537675,62.711 247.156999,62.7441022 246.272067,62.7485159 L246.074675,62.749 C245.048675,62.749 244.630675,62.711 244.630675,62.711 L244.820675,63.034 C245.200675,63.699 245.295675,64.326 245.295675,67.86 C245.295675,67.86 244.668675,68.012 243.452675,68.012 C239.310675,68.012 238.303675,65.447 238.303675,62.312 C238.303675,57.011 241.628675,56.46 243.509675,56.46 C245.428675,56.46 246.169675,57.144 247.005675,58.322 C247.005675,58.322 246.948675,57.79 246.948675,57.049 C246.948675,56.327 247.005675,55.89 247.005675,55.89 L246.989219,55.8813779 C246.851277,55.8113937 245.836119,55.339 243.566675,55.339 C239.120675,55.339 236.517675,57.942 236.517675,62.388 C236.517675,64.307 236.878675,69.133 243.452675,69.133 Z M3.42832,98 L8.88132,98 L8.91932,97.468 C9.03332,96.005 9.12832,95.34 9.12832,95.34 C8.42532,96.366 8.12132,96.917 5.76532,96.917 L4.24532,96.917 L4.24576975,90.6857245 C4.25320927,85.6196628 4.35522196,85.4696863 4.72032,84.776 L4.89132,84.453 C4.89132,84.453 4.49409333,84.4861022 3.60695378,84.4905159 L3.40932,84.491 C2.38332,84.491 1.96532,84.453 1.96532,84.453 L2.13632,84.776 C2.15228,84.8064 2.1677232,84.8357056 2.18266541,84.8643096 L2.22600486,84.9484093 L2.22600486,84.9484093 L2.26643322,85.0306559 C2.28593542,85.0717087 2.30438154,85.1129503 2.3218249,85.1557062 L2.35539046,85.24363 C2.5597049,85.8182438 2.60884134,86.7776201 2.61122682,90.8157545 L2.61132,91.141 C2.61132,95.8351176 2.54689093,96.753692 2.31191434,97.3349613 L2.27717461,97.4160765 C2.23526464,97.5089 2.18847686,97.596902 2.13632,97.696 L1.96532,98.019 L1.98898696,98.0180767 C2.09232444,98.0142711 2.53912,98 3.42832,98 Z M20.137155,97.981 C21.163155,97.981 21.581155,98.019 21.581155,98.019 L21.410155,97.696 C21.354295,97.5896 21.3047658,97.4966064 21.2608896,97.4001793 L21.2246501,97.3162938 C20.9978863,96.7604668 20.9405863,95.9487101 20.9355356,91.9686984 L20.9356048,90.6857245 C20.9430443,85.6196628 21.045057,85.4696863 21.410155,84.776 L21.581155,84.453 C21.581155,84.453 21.2004794,84.4861022 20.3155467,84.4905159 L20.118155,84.491 C19.092155,84.491 18.674155,84.453 18.674155,84.453 L18.845155,84.776 C18.901015,84.8824 18.9505442,84.9753936 18.9944204,85.0718207 L19.0306599,85.1557062 L19.0306599,85.1557062 L19.0642255,85.24363 C19.2685399,85.8182438 19.3176763,86.7776201 19.3200618,90.8157545 L19.320155,91.141 C19.320155,95.8351176 19.2557259,96.753692 19.0207493,97.3349613 L18.9860096,97.4160765 L18.9860096,97.4160765 L18.9488808,97.49483 C18.9169255,97.5600927 18.8824099,97.6252157 18.845155,97.696 L18.674155,98.019 C18.674155,98.019 19.111155,97.981 20.137155,97.981 Z M36.44699,97.981 C36.97899,97.981 37.47299,98.019 37.47299,98.019 L40.55099,88.956 C41.44399,86.334 41.84299,85.137 42.54599,84.453 C42.54599,84.453 42.0825589,84.4861022 41.1711444,84.4905159 L40.96899,84.491 C39.98099,84.491 39.39199,84.453 39.39199,84.453 C39.63899,84.624 39.99999,84.947 39.99999,85.65 C39.99999,86.315 39.60099,87.417 39.16399,88.823 L36.88399,96.138 C36.71299,96.67 36.63699,96.993 36.63699,96.993 C36.63699,96.993 36.5898826,96.7260579 36.4528427,96.2778234 L34.10999,88.823 C33.67299,87.436 33.27399,86.315 33.27399,85.65 C33.27399,84.947 33.63499,84.624 33.88199,84.453 C33.88199,84.453 33.2975173,84.4863984 32.2694717,84.4905732 L32.05799,84.491 C31.08899,84.491 30.42399,84.453 30.42399,84.453 C31.12699,85.137 31.50699,86.334 32.38099,88.956 L35.40199,98.019 C35.40199,98.019 35.93399,97.981 36.44699,97.981 Z M52.661825,98 L59.026825,98 L59.064825,97.468 C59.178825,96.005 59.273825,95.34 59.273825,95.34 C58.570825,96.366 58.266825,96.917 55.910825,96.917 L53.478825,96.917 L53.478825,91.749 L55.644825,91.749 C56.537825,91.749 57.278825,91.844 57.734825,92.11 C58.0894917,92.3253333 58.266825,92.4731111 58.3512694,92.5533333 L58.3985056,92.6008333 C58.409325,92.6124444 58.4156583,92.6198333 58.418825,92.623 C58.418825,92.585 58.361825,92.053 58.361825,91.236 C58.361825,90.4 58.418825,89.849 58.418825,89.83 C58.380825,89.868 58.228825,90.039 57.734825,90.324 C57.278825,90.59 56.537825,90.685 55.644825,90.685 L53.478825,90.685 L53.478825,85.555 L56.100825,85.555 C56.993825,85.555 57.734825,85.707 58.190825,85.973 C58.5454917,86.1883333 58.722825,86.3361111 58.8072694,86.4163333 L58.8545056,86.4638333 C58.865325,86.4754444 58.8716583,86.4828333 58.874825,86.486 C58.874825,86.448 58.817825,86.106 58.817825,85.384 C58.817825,84.757 58.836825,84.472 58.836825,84.472 L52.2644013,84.4710767 C51.628422,84.4678566 51.305788,84.4571434 51.2215687,84.4539233 L51.198825,84.453 L51.198825,84.453 L51.369825,84.776 C51.425685,84.8824 51.4752142,84.9753936 51.5190904,85.0718207 L51.5553299,85.1557062 C51.7820937,85.7115332 51.8393937,86.5232899 51.8444444,90.5033016 L51.8443752,91.7862755 C51.8372394,96.6455592 51.743093,96.9818807 51.4132275,97.613405 L51.369825,97.696 L51.369825,97.696 L51.198825,98.019 L51.222492,98.0180767 C51.3258294,98.0142711 51.772625,98 52.661825,98 Z M72.29666,98.133 C74.95666,98.133 76.76166,97.202 76.76166,94.675 C76.76166,92.414 75.39366,91.711 73.94966,90.742 L72.60066,89.83 C71.53666,89.108 70.73866,88.595 70.73866,87.417 C70.73866,85.498 72.58166,85.46 73.22766,85.46 C74.72866,85.46 75.46966,86.144 76.28666,87.322 C76.28666,87.322 76.24866,86.79 76.24866,86.049 C76.24866,85.327 76.28666,84.89 76.28666,84.89 C76.28666,84.89 75.20366,84.339 73.32266,84.339 C70.22566,84.339 69.16166,85.954 69.16166,87.588 C69.16166,89.735 70.71966,90.571 71.97366,91.407 L73.70266,92.566 C74.51966,93.117 75.16566,93.687 75.16566,94.903 C75.16566,96.86 73.43666,97.012 72.31566,97.012 C70.66266,97.012 69.88366,96.252 69.06666,95.074 C69.06666,95.074 69.10466,95.701 69.10466,96.442 C69.10466,97.107 69.06666,97.544 69.06666,97.544 C69.06666,97.544 70.13066,98.133 72.29666,98.133 Z M98.53233,97.981 C99.52033,97.981 100.10933,98.019 100.10933,98.019 C99.86233,97.848 99.50133,97.525 99.50133,96.822 C99.50133,96.157 99.86233,94.96 100.28033,93.554 L100.66033,92.281 L104.95433,92.281 L105.33433,93.554 C105.75233,94.96 106.11333,96.157 106.11333,96.822 C106.11333,97.525 105.75233,97.848 105.50533,98.019 C105.50533,98.019 106.18933,97.981 107.17733,97.981 C108.22233,97.981 108.84933,98.019 108.84933,98.019 C108.14633,97.335 107.80433,96.157 107.02533,93.516 L104.66933,85.593 C104.59333,85.365 104.53633,85.137 104.53633,84.89 C104.53633,84.624 104.65033,84.51 104.65033,84.491 L101.43933,84.491 C101.47733,84.529 101.57233,84.643 101.57233,84.89 C101.57233,85.137 101.49633,85.365 101.42033,85.593 L98.89333,93.516 C98.05733,96.138 97.69633,97.335 96.99333,98.019 C96.99333,98.019 97.48733,97.981 98.53233,97.981 Z M104.63133,91.141 L101.00233,91.141 L102.84533,85.08 C102.84533,85.08 103.05433,85.802 103.26333,86.505 L104.63133,91.141 Z M127.287165,97.981 C127.914165,97.981 128.313165,98.038 128.313165,98.038 L128.332165,91.331 C128.348185,86.5251176 128.404724,85.6496932 128.638441,85.0833345 L128.672216,85.0059491 C128.678041,84.9932644 128.683966,84.9806557 128.689992,84.9680776 L128.746996,84.8544682 C128.76029,84.8288581 128.774008,84.8028235 128.788165,84.776 L128.959165,84.453 C128.959165,84.453 128.631512,84.4857653 127.884931,84.4904461 L127.705165,84.491 C126.831165,84.491 126.394165,84.453 126.394165,84.453 L126.565165,84.776 C126.621025,84.8824 126.670554,84.9753936 126.71443,85.0718207 L126.75067,85.1557062 L126.75067,85.1557062 L126.784235,85.24363 C126.98855,85.8182438 127.037686,86.7776201 127.040072,90.8157545 L127.040165,96.727 C127.040165,96.727 126.888165,96.1 126.508165,95.378 L120.675165,84.453 C120.675165,84.453 120.331129,84.4857653 119.566996,84.4904461 L119.383165,84.491 C118.281165,84.491 117.901165,84.453 117.901165,84.453 L118.072165,84.776 C118.128025,84.8824 118.177554,84.9753936 118.22143,85.0718207 L118.25767,85.1557062 L118.25767,85.1557062 L118.291235,85.24363 C118.49555,85.8182438 118.544686,86.7776201 118.547072,90.8157545 L118.547165,91.141 C118.547165,96.2821765 118.454422,96.9253276 118.171345,97.5039224 L118.133334,97.5793896 C118.113781,97.6173045 118.0934,97.6557647 118.072165,97.696 L117.901165,98.019 C117.901165,98.019 118.281165,97.981 119.155165,97.981 C120.029165,97.981 120.466165,98.019 120.466165,98.019 L120.295165,97.696 C120.239305,97.5896 120.189776,97.4966064 120.1459,97.4001793 L120.10966,97.3162938 C119.882896,96.7604668 119.825596,95.9487101 119.820546,91.9686984 L119.820165,85.745 C119.820165,85.745 120.029165,86.543 120.333165,87.094 L126.185165,98.038 C126.185165,98.038 126.546165,97.981 127.287165,97.981 Z M150.456,90.913 C150.456,84.567 145.136,84.434 143.407,84.434 C142.59,84.434 141.659,84.491 140.899,84.491 C139.873,84.491 139.379,84.453 139.379,84.453 L139.55,84.776 C139.60586,84.8824 139.655389,84.9753936 139.699265,85.0718207 L139.735505,85.1557062 L139.735505,85.1557062 L139.76907,85.24363 C139.962632,85.788001 140.016919,86.6776989 140.024126,90.2033468 L140.024907,90.8157545 C140.02497,90.9220212 140.025,91.03042 140.025,91.141 C140.025,95.7233529 139.963602,96.7200896 139.74209,97.3000453 L139.708519,97.3823094 L139.708519,97.3823094 L139.672593,97.46083 C139.635467,97.5382145 139.594706,97.6132941 139.55,97.696 L139.379,98.019 C139.379,98.019 139.873,97.981 140.899,97.981 C141.659,97.981 142.267,98.038 143.084,98.038 L143.309392,98.0373827 C145.68217,98.022643 150.456,97.6830317 150.456,90.913 Z M143.123439,96.9546877 L142.989,96.955 C142.381,96.955 141.678,96.917 141.678,96.917 L141.678,85.555 C141.678,85.555 142.286,85.517 143.065,85.517 C145.687,85.517 148.67,85.973 148.67,91.16 C148.67,96.5698182 145.556387,96.9429091 143.123439,96.9546877 L143.123439,96.9546877 Z M175.36167,98.133 C178.02167,98.133 179.82667,97.202 179.82667,94.675 C179.82667,92.414 178.45867,91.711 177.01467,90.742 L175.66567,89.83 C174.60167,89.108 173.80367,88.595 173.80367,87.417 C173.80367,85.498 175.64667,85.46 176.29267,85.46 C177.79367,85.46 178.53467,86.144 179.35167,87.322 C179.35167,87.322 179.31367,86.79 179.31367,86.049 C179.31367,85.327 179.35167,84.89 179.35167,84.89 C179.35167,84.89 178.26867,84.339 176.38767,84.339 C173.29067,84.339 172.22667,85.954 172.22667,87.588 C172.22667,89.735 173.78467,90.571 175.03867,91.407 L176.76767,92.566 C177.58467,93.117 178.23067,93.687 178.23067,94.903 C178.23067,96.86 176.50167,97.012 175.38067,97.012 C173.72767,97.012 172.94867,96.252 172.13167,95.074 C172.13167,95.074 172.16967,95.701 172.16967,96.442 C172.16967,97.107 172.13167,97.544 172.13167,97.544 C172.13167,97.544 173.19567,98.133 175.36167,98.133 Z M191.348505,97.981 C192.374505,97.981 192.792505,98.019 192.792505,98.019 L192.621505,97.696 C192.222505,96.936 192.146505,96.594 192.146505,92.414 C192.146505,92.414 192.697505,92.49 193.400505,92.49 C195.395505,92.49 198.188505,91.939 198.188505,88.367 C198.188505,84.605 194.920505,84.453 193.210505,84.453 C192.659505,84.453 191.880505,84.491 191.101505,84.491 C190.360505,84.491 189.885505,84.453 189.885505,84.453 L190.056505,84.776 C190.072465,84.8064 190.087908,84.8357056 190.10285,84.8643096 L190.14619,84.9484093 L190.14619,84.9484093 L190.186618,85.0306559 C190.459649,85.6053947 190.525685,86.2171351 190.531124,90.5033016 L190.531055,91.7863597 C190.52483,96.0264368 190.452392,96.8354749 190.215024,97.3823094 L190.179098,97.46083 C190.141972,97.5382145 190.101211,97.6132941 190.056505,97.696 L189.885505,98.019 C189.885505,98.019 190.322505,97.981 191.348505,97.981 Z M193.343505,91.464 C192.450505,91.464 192.146505,91.407 192.146505,91.407 L192.146505,85.517 C192.146505,85.517 192.583505,85.479 193.210505,85.479 C194.578505,85.479 196.402505,85.802 196.402505,88.329 C196.402505,89.45 196.269505,91.464 193.343505,91.464 Z M207.52534,97.981 C208.51334,97.981 209.10234,98.019 209.10234,98.019 C208.85534,97.848 208.49434,97.525 208.49434,96.822 C208.49434,96.157 208.85534,94.96 209.27334,93.554 L209.65334,92.281 L213.94734,92.281 L214.32734,93.554 C214.74534,94.96 215.10634,96.157 215.10634,96.822 C215.10634,97.525 214.74534,97.848 214.49834,98.019 C214.49834,98.019 215.18234,97.981 216.17034,97.981 C217.21534,97.981 217.84234,98.019 217.84234,98.019 C217.13934,97.335 216.79734,96.157 216.01834,93.516 L213.66234,85.593 C213.58634,85.365 213.52934,85.137 213.52934,84.89 C213.52934,84.624 213.64334,84.51 213.64334,84.491 L210.43234,84.491 C210.47034,84.529 210.56534,84.643 210.56534,84.89 C210.56534,85.137 210.48934,85.365 210.41334,85.593 L207.88634,93.516 C207.05034,96.138 206.68934,97.335 205.98634,98.019 C205.98634,98.019 206.48034,97.981 207.52534,97.981 Z M213.62434,91.141 L209.99534,91.141 L211.83834,85.08 C211.83834,85.08 212.04734,85.802 212.25634,86.505 L213.62434,91.141 Z M233.202175,98.133 C234.748015,98.133 235.860473,97.8473616 236.362255,97.6874041 L236.506655,97.639304 C236.607735,97.60404 236.660175,97.582 236.660175,97.582 C236.660175,97.582 236.628244,97.2147986 236.622923,96.6413791 L236.622175,96.48 C236.622175,95.739 236.660175,95.112 236.660175,95.112 C235.843175,96.29 235.159175,97.012 233.240175,97.012 C229.231175,97.012 228.300175,94.333 228.300175,91.312 C228.300175,86.011 231.492175,85.46 233.316175,85.46 C235.178175,85.46 235.843175,86.144 236.660175,87.322 C236.660175,87.322 236.627796,86.8686982 236.622815,86.2161429 L236.622175,86.049 C236.622175,85.327 236.660175,84.89 236.660175,84.89 L236.596079,84.8573034 C236.347418,84.738834 235.358323,84.339 233.335175,84.339 C229.022175,84.339 226.514175,86.942 226.514175,91.388 C226.514175,93.307 226.837175,98.133 233.202175,98.133 Z M247.91601,98 L254.28101,98 L254.31901,97.468 C254.43301,96.005 254.52801,95.34 254.52801,95.34 C253.82501,96.366 253.52101,96.917 251.16501,96.917 L248.73301,96.917 L248.73301,91.749 L250.89901,91.749 C251.79201,91.749 252.53301,91.844 252.98901,92.11 C253.343677,92.3253333 253.52101,92.4731111 253.605454,92.5533333 L253.652691,92.6008333 C253.66351,92.6124444 253.669843,92.6198333 253.67301,92.623 C253.67301,92.5879231 253.624442,92.1319231 253.61697,91.4193842 L253.61601,91.236 C253.61601,90.4 253.67301,89.849 253.67301,89.83 L253.639607,89.8638032 C253.568431,89.9339504 253.393192,90.0908182 252.98901,90.324 C252.53301,90.59 251.79201,90.685 250.89901,90.685 L248.73301,90.685 L248.73301,85.555 L251.35501,85.555 C252.24801,85.555 252.98901,85.707 253.44501,85.973 C253.799677,86.1883333 253.97701,86.3361111 254.061454,86.4163333 L254.108691,86.4638333 C254.11951,86.4754444 254.125843,86.4828333 254.12901,86.486 C254.12901,86.448 254.07201,86.106 254.07201,85.384 C254.07201,84.757 254.09101,84.472 254.09101,84.472 L247.518586,84.4710767 C246.882607,84.4678566 246.559973,84.4571434 246.475754,84.4539233 L246.45301,84.453 L246.45301,84.453 L246.62401,84.776 C246.67987,84.8824 246.729399,84.9753936 246.773275,85.0718207 L246.809515,85.1557062 L246.809515,85.1557062 L246.84308,85.24363 C247.036642,85.788001 247.090929,86.6776989 247.098136,90.2033468 L247.098917,90.8157545 C247.09898,90.9220212 247.09901,91.03042 247.09901,91.141 C247.09901,96.841 247.00401,96.974 246.62401,97.696 L246.45301,98.019 L246.476677,98.0180767 C246.580014,98.0142711 247.02681,98 247.91601,98 Z M267.550845,98.133 C270.210845,98.133 272.015845,97.202 272.015845,94.675 C272.015845,92.414 270.647845,91.711 269.203845,90.742 L267.854845,89.83 C266.790845,89.108 265.992845,88.595 265.992845,87.417 C265.992845,85.498 267.835845,85.46 268.481845,85.46 C269.982845,85.46 270.723845,86.144 271.540845,87.322 C271.540845,87.322 271.502845,86.79 271.502845,86.049 C271.502845,85.327 271.540845,84.89 271.540845,84.89 C271.540845,84.89 270.457845,84.339 268.576845,84.339 C265.479845,84.339 264.415845,85.954 264.415845,87.588 C264.415845,89.4964444 265.646857,90.369037 266.80114,91.126535 L267.087355,91.3140445 C267.134539,91.3450741 267.181401,91.376037 267.227845,91.407 L268.956845,92.566 C269.773845,93.117 270.419845,93.687 270.419845,94.903 C270.419845,96.86 268.690845,97.012 267.569845,97.012 C265.916845,97.012 265.137845,96.252 264.320845,95.074 C264.320845,95.074 264.35361,95.6146276 264.358291,96.2851461 L264.358845,96.442 C264.358845,97.107 264.320845,97.544 264.320845,97.544 C264.320845,97.544 265.384845,98.133 267.550845,98.133 Z" id="TRANSFORMINGLIVESANDSPACES" fill="#52706A" fill-rule="nonzero"></path>
            </g>
        </g>
    </g>
</svg>